<?xml version="1.0" encoding="utf-8"?>
<!-- Generator: Adobe Illustrator 16.0.0, SVG Export Plug-In . SVG Version: 6.00 Build 0)  -->
<!DOCTYPE svg PUBLIC "-//W3C//DTD SVG 1.1//EN" "http://www.w3.org/Graphics/SVG/1.1/DTD/svg11.dtd">
<svg version="1.1" id="Layer_1" xmlns="http://www.w3.org/2000/svg" xmlns:xlink="http://www.w3.org/1999/xlink" x="0px" y="0px"
	 width="100px" height="100px" viewBox="0 0 100 100" enable-background="new 0 0 100 100" xml:space="preserve">
<g>
	<g>
		<path fill="#126CA0" d="M54.609,54.637l5.882,7.27c0.475,0.757,1,1.524,1.079,2.429c0.082,0.92,0.107,1.874-0.043,2.779
			c-0.205,1.247-1.049,2.015-2.279,2.336c-0.09,0.022-0.181,0.043-0.268,0.065c-0.223,0.788-0.421,0.937-1.245,0.933
			c-0.419-0.001-0.839,0-1.258-0.001c-0.684-0.002-0.926-0.189-1.113-0.874H44.658c-0.018,0.057-0.041,0.126-0.061,0.194
			c-0.123,0.427-0.431,0.672-0.877,0.678c-0.493,0.008-0.988,0.002-1.481,0.003c-0.775,0.002-1.016-0.183-1.186-0.888
			c-0.354-0.133-0.711-0.224-1.025-0.392c-0.976-0.522-1.53-1.357-1.609-2.457c-0.053-0.74-0.054-1.492-0.007-2.234
			c0.045-0.698,0.395-1.313,0.734-1.913c1.078-1.904,2.417-3.624,3.818-5.296c0.789-0.941,1.632-1.839,2.442-2.763
			c0.077-0.088,0.124-0.223,0.135-0.341c0.021-0.223,0-0.447,0.008-0.67c0.021-0.52,0.39-0.891,0.909-0.911
			c0.279-0.011,0.56-0.011,0.839,0c0.516,0.02,0.888,0.392,0.907,0.911c0.011,0.278,0.002,0.557,0.002,0.864h3.604
			c0-0.265-0.002-0.521,0-0.777c0.005-0.619,0.376-0.995,0.987-1.001c0.251-0.002,0.505-0.008,0.755,0.001
			c0.521,0.02,0.887,0.386,0.917,0.906c0,0.01,0.001,0.02,0,0.027v0.525c0,0.028-0.002,0.058-0.005,0.086l0,0
			C54.439,54.31,54.493,54.495,54.609,54.637z M47.338,58.833c0-0.205-0.001-0.41,0-0.614c0-0.194-0.094-0.295-0.289-0.295
			c-0.409,0.002-0.819,0.002-1.229,0.002c-0.194,0-0.294,0.094-0.294,0.29c-0.001,0.409,0,0.818-0.002,1.228
			c0,0.195,0.095,0.293,0.29,0.293c0.409,0,0.819,0,1.229,0.002c0.194,0,0.294-0.096,0.295-0.29
			C47.338,59.242,47.338,59.037,47.338,58.833z M49.995,59.736c0.206,0,0.409-0.002,0.613,0c0.21,0.003,0.309-0.099,0.306-0.308
			c0-0.399,0-0.801,0.002-1.2c0.001-0.191-0.082-0.303-0.279-0.303c-0.42-0.002-0.839-0.002-1.257,0
			c-0.182,0-0.275,0.098-0.276,0.277c-0.001,0.419-0.001,0.837,0,1.256c0.001,0.182,0.096,0.275,0.277,0.277
			C49.586,59.738,49.79,59.736,49.995,59.736z M53.583,59.736c0.205,0,0.409-0.002,0.614,0c0.194,0.002,0.296-0.091,0.296-0.287
			c0-0.409-0.001-0.819,0-1.229c0-0.193-0.089-0.297-0.288-0.297c-0.409,0-0.818,0.002-1.228,0c-0.194,0-0.296,0.091-0.296,0.287
			c0,0.411,0,0.82-0.002,1.229c0,0.195,0.094,0.294,0.288,0.296C53.174,59.736,53.377,59.736,53.583,59.736z M47.337,61.535
			c0-0.203-0.004-0.409,0.001-0.612c0.004-0.227-0.105-0.318-0.327-0.315c-0.391,0.005-0.781,0.003-1.173,0
			c-0.226-0.003-0.317,0.106-0.314,0.326c0.005,0.392,0.005,0.782,0,1.174c-0.002,0.207,0.088,0.313,0.299,0.312
			c0.41,0,0.82,0.002,1.229,0c0.197,0,0.287-0.104,0.286-0.296C47.335,61.927,47.337,61.731,47.337,61.535z M50.916,61.526
			c0-0.204-0.002-0.409,0-0.615c0.001-0.208-0.103-0.304-0.31-0.304c-0.399,0.003-0.801,0.003-1.201,0
			c-0.21,0-0.305,0.1-0.303,0.309c0.002,0.399,0.001,0.801,0,1.2c-0.001,0.209,0.102,0.306,0.309,0.305c0.4-0.002,0.801-0.002,1.2,0
			c0.21,0.001,0.308-0.101,0.305-0.308C50.914,61.918,50.916,61.722,50.916,61.526z M53.586,62.421c0.205,0,0.409,0,0.614,0
			c0.194,0,0.293-0.096,0.293-0.29c0-0.411,0-0.82,0-1.229c0.002-0.195-0.096-0.293-0.291-0.293c-0.409,0-0.818,0.002-1.228,0
			c-0.196,0-0.293,0.095-0.293,0.29c0,0.409,0.001,0.818,0,1.229c0,0.192,0.094,0.293,0.29,0.293
			C53.177,62.421,53.381,62.421,53.586,62.421z M46.409,65.105c0.196,0,0.392-0.007,0.587,0.001
			c0.231,0.009,0.347-0.087,0.343-0.327c-0.006-0.393-0.004-0.782-0.001-1.174c0.003-0.207-0.087-0.313-0.299-0.313
			c-0.409,0-0.819-0.001-1.229,0c-0.179,0-0.281,0.085-0.283,0.27c-0.002,0.419-0.001,0.837,0,1.256
			c0.001,0.196,0.102,0.288,0.297,0.287C46.019,65.104,46.214,65.104,46.409,65.105z M50.916,64.206
			c0-0.196-0.005-0.393,0.001-0.586c0.005-0.219-0.086-0.332-0.313-0.328c-0.39,0.003-0.781,0.005-1.172,0
			c-0.219-0.004-0.331,0.087-0.328,0.313c0.003,0.399,0.001,0.801,0,1.2c-0.001,0.192,0.087,0.298,0.284,0.298
			c0.409,0.002,0.819,0,1.228,0.002c0.213,0,0.304-0.108,0.301-0.313C50.914,64.598,50.916,64.401,50.916,64.206z M52.682,64.194
			c0,0.204,0,0.409,0,0.613c-0.002,0.194,0.089,0.296,0.286,0.296c0.409,0,0.818,0,1.228,0c0.194,0,0.297-0.092,0.297-0.288
			c0.001-0.409,0-0.818,0.001-1.229c0-0.194-0.092-0.294-0.288-0.294c-0.409,0-0.818,0.001-1.229,0
			c-0.211,0-0.299,0.111-0.296,0.315C52.685,63.803,52.682,63.999,52.682,64.194z"/>
		<path fill="#126CA0" d="M50.027,47.211c2.104,0.023,4.208,0.102,6.289,0.449c1.621,0.271,3.208,0.655,4.647,1.491
			c1.137,0.659,2.021,1.543,2.303,2.874c0.111,0.522,0.149,1.071,0.134,1.606c-0.025,0.885-0.591,1.457-1.495,1.553
			c-0.516,0.054-1.04,0.056-1.561,0.052c-0.801-0.003-1.604,0.012-2.399-0.057c-1.045-0.091-1.665-0.806-1.657-1.856
			c0.008-0.896-0.404-1.502-1.187-1.888c-0.72-0.353-1.493-0.509-2.281-0.604c-1.727-0.214-3.456-0.214-5.186-0.055
			c-0.854,0.08-1.697,0.22-2.496,0.555c-0.909,0.382-1.428,1.01-1.413,2.054c0.015,0.997-0.623,1.68-1.632,1.795
			c-0.525,0.061-1.06,0.061-1.589,0.059c-0.791-0.003-1.586,0.01-2.372-0.059c-0.98-0.085-1.494-0.711-1.531-1.696
			c-0.084-2.21,1.017-3.655,2.925-4.592c1.409-0.692,2.92-1.043,4.459-1.278C45.986,47.305,48.005,47.227,50.027,47.211z"/>
	</g>
	<g>
		<g>
			<circle fill="#126CA0" cx="18.511" cy="68.851" r="6.925"/>
			<path fill="#126CA0" d="M9.159,100h18.485c1.488,0,2.737-1.183,2.751-2.67c0-0.011,0.001-0.021,0.001-0.032V82.74
				c0-1.275-0.606-2.485-1.653-3.214c-0.858-0.598-3.988-1.08-5.911-1.08l-3.095,7.521l-0.516-4.334l1.146-1.723
				c0.219-0.382,0.166-0.871-0.159-1.199c-0.192-0.194-0.463-0.288-0.736-0.288h-2.14c-0.273,0-0.545,0.094-0.736,0.288
				c-0.325,0.328-0.378,0.817-0.159,1.199l1.144,1.723l-0.513,4.339l-3.042-7.397c-1.704,0-4.754,0.343-5.606,0.805
				c-1.256,0.678-2.011,2.017-2.011,3.442v14.476c0,0.012,0,0.021,0,0.032C6.422,98.817,7.671,100,9.159,100z"/>
		</g>
		<g>
			<circle fill="#126CA0" cx="50.239" cy="6.926" r="6.926"/>
			<path fill="#126CA0" d="M40.888,38.074h18.485c1.487,0,2.737-1.182,2.752-2.669c0-0.01,0-0.021,0-0.032V20.816
				c0-1.276-0.606-2.487-1.654-3.215c-0.856-0.597-3.987-1.08-5.909-1.08l-3.097,7.522l-0.514-4.335l1.145-1.723
				c0.22-0.383,0.165-0.871-0.159-1.199c-0.191-0.194-0.462-0.289-0.735-0.289h-2.141c-0.272,0-0.544,0.095-0.736,0.289
				c-0.324,0.328-0.378,0.816-0.158,1.199l1.143,1.723l-0.513,4.339l-3.041-7.396c-1.705,0-4.755,0.342-5.607,0.803
				c-1.254,0.678-2.011,2.017-2.011,3.443v14.476c0,0.01,0,0.021,0,0.032C38.151,36.893,39.4,38.074,40.888,38.074z"/>
		</g>
		<g>
			<circle fill="#126CA0" cx="81.708" cy="68.851" r="6.925"/>
			<path fill="#126CA0" d="M72.356,100h18.485c1.487,0,2.737-1.183,2.75-2.67c0-0.011,0-0.021,0-0.032V82.74
				c0-1.275-0.604-2.485-1.652-3.214c-0.856-0.598-3.987-1.08-5.91-1.08l-3.096,7.521l-0.516-4.334l1.146-1.723
				c0.218-0.382,0.165-0.871-0.159-1.199c-0.193-0.194-0.464-0.288-0.736-0.288h-2.142c-0.271,0-0.543,0.094-0.735,0.288
				c-0.324,0.328-0.377,0.817-0.157,1.199l1.142,1.723l-0.513,4.339l-3.041-7.397c-1.706,0-4.755,0.343-5.606,0.805
				c-1.255,0.678-2.011,2.017-2.011,3.442v14.476c0,0.012,0,0.021,0,0.032C69.619,98.817,70.868,100,72.356,100z"/>
			<path fill="#126CA0" d="M72.356,100h18.485c1.487,0,2.737-1.183,2.75-2.67c0-0.011,0-0.021,0-0.032V82.74
				c0-1.275-0.604-2.485-1.652-3.214c-0.856-0.598-3.987-1.08-5.91-1.08l-3.096,7.521l-0.516-4.334l1.146-1.723
				c0.218-0.382,0.165-0.871-0.159-1.199c-0.193-0.194-0.464-0.288-0.736-0.288h-2.142c-0.271,0-0.543,0.094-0.735,0.288
				c-0.324,0.328-0.377,0.817-0.157,1.199l1.142,1.723l-0.513,4.339l-3.041-7.397c-1.706,0-4.755,0.343-5.606,0.805
				c-1.255,0.678-2.011,2.017-2.011,3.442v14.476c0,0.012,0,0.021,0,0.032C69.619,98.817,70.868,100,72.356,100z"/>
		</g>
	</g>
	<g>
		<path fill="#126CA0" d="M80.057,57.397c0.54-0.078,1.091-0.119,1.651-0.119c1.476,0,2.885,0.279,4.183,0.784
			c-0.284-13.419-7.961-25.049-19.118-30.969v6.762C74.431,39.014,79.595,47.601,80.057,57.397z"/>
		<path fill="#126CA0" d="M18.511,57.278c0.486,0,0.964,0.033,1.435,0.09c0.476-9.894,5.75-18.55,13.544-23.686v-6.727
			C22.167,32.844,14.362,44.589,14.108,58.15C15.467,57.588,16.953,57.278,18.511,57.278z"/>
		<path fill="#126CA0" d="M50,88.925c-5.44,0-10.548-1.452-14.956-3.988l-0.001,6.528c4.557,2.097,9.622,3.27,14.957,3.27
			c5.336,0,10.4-1.173,14.957-3.27v-6.528C60.549,87.473,55.44,88.925,50,88.925z"/>
	</g>
</g>
</svg>
