<?xml version="1.0" encoding="utf-8"?>
<!-- Generator: Adobe Illustrator 16.0.0, SVG Export Plug-In . SVG Version: 6.00 Build 0)  -->
<!DOCTYPE svg PUBLIC "-//W3C//DTD SVG 1.1//EN" "http://www.w3.org/Graphics/SVG/1.1/DTD/svg11.dtd">
<svg version="1.1" id="Capa_1" xmlns="http://www.w3.org/2000/svg" xmlns:xlink="http://www.w3.org/1999/xlink" x="0px" y="0px"
	 width="60px" height="60px" viewBox="0 0 60 60" enable-background="new 0 0 60 60" xml:space="preserve">
<g>
	<g>
		<g>
			<path fill="#75D122" d="M51.214,8.787C45.546,3.121,38.013,0,30.001,0C21.987,0,14.454,3.121,8.788,8.787
				C3.12,14.453,0.001,21.986,0.001,30S3.12,45.547,8.788,51.213C14.454,56.88,21.987,60,30.001,60
				c8.012,0,15.545-3.12,21.213-8.787C56.88,45.547,59.999,38.014,59.999,30S56.88,14.453,51.214,8.787z M29.999,56.483
				C15.396,56.483,3.517,44.603,3.517,30c0-14.604,11.879-26.484,26.482-26.484S56.483,15.396,56.483,30
				C56.483,44.603,44.603,56.483,29.999,56.483z"/>
		</g>
	</g>
	<g>
		<g>
			<path fill="#75D122" d="M44.333,20.373c-0.688-0.688-1.801-0.688-2.486,0L26.325,35.895l-8.172-8.171
				c-0.686-0.687-1.799-0.687-2.484,0c-0.688,0.687-0.688,1.799,0,2.485l9.414,9.415c0.342,0.343,0.793,0.515,1.242,0.515
				c0.451,0,0.9-0.172,1.244-0.515l16.766-16.767C45.019,22.172,45.019,21.06,44.333,20.373z"/>
		</g>
	</g>
</g>
</svg>
