<?xml version="1.0" encoding="utf-8"?>
<!-- Generator: Adobe Illustrator 16.0.0, SVG Export Plug-In . SVG Version: 6.00 Build 0)  -->
<!DOCTYPE svg PUBLIC "-//W3C//DTD SVG 1.1//EN" "http://www.w3.org/Graphics/SVG/1.1/DTD/svg11.dtd">
<svg version="1.1" id="Layer_1" xmlns="http://www.w3.org/2000/svg" xmlns:xlink="http://www.w3.org/1999/xlink" x="0px" y="0px"
	 width="100px" height="100px" viewBox="0 0 100 100" enable-background="new 0 0 100 100" xml:space="preserve">
<g>
	<g>
		<path fill="#126CA0" d="M2.539,15.81c0,0-10.386,22.492,24.278,57.458c0.02,0.021,0.065,0.064,0.085,0.085
			c35.253,34.372,57.659,23.8,57.659,23.8c3.61-0.715,9.637-5.605,11.059-7.702l2.821-6.518c1.646-4.192-1.113-9.201-6.165-11.183
			l-15.851-6.224c-5.051-1.982-9.592,0.125-11.237,4.319l-1.903,6.811c0,0-10.371,1.962-26.226-13.631
			C21.335,47.302,23.211,36.914,23.211,36.914l6.795-1.96c4.18-1.681,6.25-6.239,4.225-11.273L27.877,7.882
			c-2.024-5.035-7.057-7.753-11.236-6.069l-6.492,2.876C8.063,6.127,3.223,12.192,2.539,15.81z"/>
		<path fill="#126CA0" d="M75.341,99.765c-0.001,0-0.001,0-0.002,0c-10.444-0.001-27.456-4.45-49.189-25.64l-0.097-0.097
			c-7.978-8.047-14.233-16.11-18.596-23.966c-3.51-6.322-5.812-12.53-6.84-18.451c-1.652-9.51,0.496-15.197,0.888-16.127
			c0.825-3.941,5.793-10.14,8.033-11.684L9.62,3.743l6.618-2.932c0.95-0.382,1.957-0.576,2.992-0.576
			c4.029,0,7.905,2.911,9.647,7.244l6.354,15.799c1.078,2.68,1.152,5.34,0.216,7.695c-0.901,2.269-2.691,4.037-5.039,4.981
			l-0.104,0.035l-6.079,1.754c-0.028,1,0.077,3.143,1.104,6.191c1.351,4.014,4.615,10.45,12.493,18.327
			c12.291,12.089,21.05,13.395,24.245,13.395c0.141,0,0.267-0.003,0.379-0.007l1.738-6.198c1.393-3.551,4.636-5.757,8.464-5.757
			c1.37,0,2.774,0.278,4.172,0.828l15.851,6.223c2.677,1.05,4.858,2.913,6.145,5.246c1.321,2.397,1.546,5.003,0.63,7.335
			l-0.014,0.034l-2.862,6.61l-0.057,0.084c-1.526,2.252-7.685,7.271-11.619,8.129C84.211,98.479,80.9,99.765,75.341,99.765z
			 M10.685,5.631c-1.914,1.39-6.477,7.16-7.086,10.379l-0.024,0.131l-0.056,0.121c-0.024,0.052-2.458,5.569-0.742,15.181
			c1.595,8.929,7.194,23.3,24.807,41.066l0.082,0.081c21.204,20.674,37.63,25.017,47.674,25.018c0.001,0,0.002,0,0.002,0
			c5.615,0,8.732-1.418,8.764-1.432l0.117-0.055l0.13-0.026c3.214-0.637,8.947-5.248,10.321-7.172l2.771-6.4
			c0.669-1.721,0.485-3.669-0.519-5.489c-1.043-1.893-2.834-3.413-5.043-4.279L76.032,66.53c-1.146-0.449-2.284-0.678-3.384-0.678
			c-2.947,0-5.35,1.62-6.437,4.338l-2.068,7.401l-0.658,0.124c-0.053,0.01-0.544,0.099-1.418,0.099
			c-3.461,0-12.897-1.366-25.764-14.021C20.356,47.849,22.069,37.169,22.15,36.723l0.119-0.659l7.383-2.13
			c1.771-0.726,3.116-2.059,3.791-3.757c0.729-1.831,0.654-3.938-0.213-6.094L26.876,8.284c-1.417-3.524-4.49-5.892-7.646-5.892
			c-0.752,0-1.482,0.139-2.17,0.413L10.685,5.631z"/>
	</g>
	<g>
		<path fill="#126CA0" d="M86.314,28.37H45.807c-1.406,0-2.551,1.145-2.551,2.552v19.865c0,1.406,1.145,2.551,2.551,2.551h40.508
			c1.406,0,2.551-1.145,2.551-2.551V30.922C88.865,29.515,87.721,28.37,86.314,28.37z M76.489,48.017H55.631
			c-3.949,0-7.162-3.214-7.162-7.163s3.213-7.161,7.162-7.161s7.162,3.212,7.162,7.161c0,1.947-0.781,3.714-2.046,5.006h10.627
			c-1.265-1.292-2.046-3.059-2.046-5.006c0-3.949,3.213-7.161,7.161-7.161c3.949,0,7.163,3.212,7.163,7.161
			S80.438,48.017,76.489,48.017z"/>
		<path fill="#126CA0" d="M86.314,26.214H45.807c-2.596,0-4.707,2.111-4.707,4.708v19.865c0,2.596,2.111,4.707,4.707,4.707h40.508
			c2.596,0,4.707-2.111,4.707-4.707V30.922C91.021,28.325,88.91,26.214,86.314,26.214z M88.865,50.787
			c0,1.406-1.145,2.551-2.551,2.551H45.807c-1.406,0-2.551-1.145-2.551-2.551V30.922c0-1.407,1.145-2.552,2.551-2.552h40.508
			c1.406,0,2.551,1.145,2.551,2.552V50.787z"/>
		<path fill="#126CA0" d="M60.637,40.854c0-2.76-2.246-5.005-5.006-5.005s-5.005,2.245-5.005,5.005c0,2.761,2.245,5.006,5.005,5.006
			S60.637,43.614,60.637,40.854z"/>
		<path fill="#126CA0" d="M81.495,40.854c0-2.76-2.245-5.005-5.006-5.005c-2.76,0-5.005,2.245-5.005,5.005
			c0,2.761,2.245,5.006,5.005,5.006C79.25,45.859,81.495,43.614,81.495,40.854z"/>
	</g>
</g>
</svg>
