<?xml version="1.0" encoding="utf-8"?>
<!-- Generator: Adobe Illustrator 16.0.0, SVG Export Plug-In . SVG Version: 6.00 Build 0)  -->
<!DOCTYPE svg PUBLIC "-//W3C//DTD SVG 1.1//EN" "http://www.w3.org/Graphics/SVG/1.1/DTD/svg11.dtd">
<svg version="1.1" id="Layer_1" xmlns="http://www.w3.org/2000/svg" xmlns:xlink="http://www.w3.org/1999/xlink" x="0px" y="0px"
	 width="100px" height="100px" viewBox="0 0 100 100" enable-background="new 0 0 100 100" xml:space="preserve">
<g>
	<path fill="#126CA0" d="M79.114,34.601c-1.548,0-3.023,0.433-4.297,1.22c-1.3-2.808-4.125-4.771-7.415-4.771
		c-1.549,0-3.024,0.432-4.298,1.219c-1.299-2.807-4.125-4.771-7.415-4.771c-1.243,0-2.439,0.279-3.522,0.795V14.856
		c0-4.514-3.672-8.187-8.187-8.187c-4.514,0-8.187,3.673-8.187,8.187l0.001,41.895c-0.294-0.474-0.595-0.973-0.882-1.45
		c-1.005-1.672-2.046-3.4-3.025-4.478c-4.267-4.687-8.474-5.597-12.502-2.707c-3.476,2.496-3.324,7.02-2.023,10.422
		c0.102,0.263,0.212,0.494,0.354,0.738c1.108,1.908,6.757,11.647,9.064,15.918c0.147,0.271,0.329,0.649,0.557,1.117
		C30.176,82.171,38.817,100,62.238,100c13.637,0,19.856-7.903,21.897-11.301c2.159-3.596,3.165-8.373,3.165-15.036V42.788
		C87.301,38.273,83.628,34.601,79.114,34.601z M84.026,73.663c0,5.961-0.883,10.327-2.698,13.35
		c-1.755,2.921-7.125,9.712-19.09,9.712c-21.369,0-29.336-16.439-31.954-21.841c-0.254-0.521-0.459-0.944-0.623-1.246
		c-2.271-4.205-7.55-13.314-9.114-16.008c-0.052-0.088-0.092-0.171-0.126-0.264c-0.42-1.098-1.597-4.815,0.875-6.59
		c1.831-1.316,4.233-2.073,8.171,2.252c0.762,0.837,1.717,2.425,2.64,3.96c1.103,1.833,2.054,3.415,2.961,4.283
		c0.686,0.655,1.693,0.841,2.564,0.468c0.873-0.373,1.438-1.229,1.438-2.179l-0.001-44.704c0-2.708,2.204-4.912,4.912-4.912
		c2.709,0,4.912,2.204,4.912,4.912v34.499c0,0.904,0.733,1.638,1.637,1.638c0.904,0,1.638-0.733,1.638-1.638v-17.05
		c0.924-0.964,2.169-1.532,3.522-1.532c2.708,0,4.911,2.203,4.911,4.911v15.26c0,0.904,0.733,1.638,1.638,1.638
		s1.638-0.733,1.638-1.638V35.861c0.924-0.967,2.17-1.537,3.526-1.537c2.708,0,4.911,2.204,4.911,4.912v15.26
		c0,0.904,0.733,1.638,1.638,1.638s1.638-0.733,1.638-1.638V39.413c0.924-0.967,2.17-1.537,3.525-1.537
		c2.708,0,4.912,2.203,4.912,4.912V73.663z"/>
	<path fill="#126CA0" d="M20.774,22.25c0.419,0,0.838-0.159,1.158-0.479c0.64-0.64,0.64-1.676,0-2.315l-3.644-3.644h11.489
		c0.475,4.02,2.676,7.682,6.016,10.001v-4.324c-1.793-1.983-2.85-4.585-2.85-7.313c0-6.011,4.89-10.9,10.9-10.9s10.9,4.89,10.9,10.9
		c0,2.621-0.94,5.077-2.578,7.014v4.427c3.669-2.667,5.853-6.864,5.853-11.44C58.02,6.359,51.66,0,43.845,0
		c-7.262,0-13.257,5.491-14.072,12.537H18.289l3.644-3.644c0.64-0.64,0.64-1.677,0-2.315c-0.64-0.64-1.676-0.64-2.315,0
		l-6.438,6.439c-0.32,0.319-0.479,0.738-0.479,1.157s0.159,0.838,0.479,1.157l6.438,6.438C19.937,22.091,20.355,22.25,20.774,22.25z
		"/>
</g>
</svg>
