<?xml version="1.0" encoding="utf-8"?>
<!-- Generator: Adobe Illustrator 16.0.0, SVG Export Plug-In . SVG Version: 6.00 Build 0)  -->
<!DOCTYPE svg PUBLIC "-//W3C//DTD SVG 1.1//EN" "http://www.w3.org/Graphics/SVG/1.1/DTD/svg11.dtd">
<svg version="1.1" id="Layer_1" xmlns="http://www.w3.org/2000/svg" xmlns:xlink="http://www.w3.org/1999/xlink" x="0px" y="0px"
	 width="100px" height="100px" viewBox="0 0 100 100" enable-background="new 0 0 100 100" xml:space="preserve">
<path fill="#126CA0" d="M87.876,65.121h-5.085c-0.421,0.913-0.867,1.814-1.364,2.691c-1.042,1.834-0.88,4.104,0.413,5.783
	c1.167,1.518,2.324,3.051,3.438,4.557c0.166,0.223,0.139,0.541-0.063,0.74l-6.322,6.321c-0.199,0.201-0.519,0.228-0.74,0.063
	c-1.504-1.112-3.036-2.27-4.557-3.438c-1.68-1.293-3.949-1.454-5.783-0.413c-2.578,1.465-5.334,2.606-8.189,3.395
	c-2.03,0.561-3.52,2.279-3.793,4.381c-0.247,1.898-0.514,3.8-0.79,5.65c-0.041,0.272-0.285,0.479-0.567,0.479h-8.941
	c-0.283,0-0.527-0.206-0.568-0.479c-0.275-1.85-0.542-3.75-0.79-5.65c-0.274-2.102-1.763-3.82-3.793-4.381
	c-2.856-0.786-5.611-1.928-8.19-3.395c-0.804-0.455-1.692-0.682-2.577-0.682c-1.134,0-2.263,0.369-3.206,1.095
	c-1.52,1.17-3.053,2.326-4.557,3.438c-0.222,0.164-0.541,0.138-0.741-0.063l-6.322-6.319c-0.2-0.201-0.228-0.521-0.063-0.742
	c1.113-1.504,2.27-3.037,3.438-4.557c1.292-1.68,1.454-3.949,0.413-5.783c-1.465-2.58-2.607-5.334-3.394-8.189
	c-0.56-2.029-2.279-3.52-4.38-3.793c-1.897-0.248-3.798-0.514-5.651-0.791c-0.273-0.041-0.479-0.285-0.479-0.568v-8.939
	c0-0.283,0.206-0.527,0.479-0.568c1.853-0.277,3.754-0.543,5.651-0.791c2.102-0.273,3.821-1.763,4.38-3.793
	c0.786-2.854,1.928-5.61,3.394-8.19c1.042-1.834,0.879-4.104-0.413-5.783c-1.165-1.515-2.322-3.048-3.438-4.557
	c-0.164-0.222-0.137-0.541,0.063-0.741l6.321-6.322c0.2-0.2,0.519-0.227,0.741-0.063c1.503,1.112,3.037,2.269,4.557,3.438
	c1.68,1.292,3.95,1.454,5.784,0.413c2.579-1.465,5.334-2.607,8.189-3.394c2.031-0.56,3.519-2.278,3.793-4.38
	c0.248-1.9,0.515-3.802,0.79-5.651c0.041-0.273,0.286-0.479,0.569-0.479h8.939c0.283,0,0.527,0.206,0.568,0.479
	c0.275,1.849,0.543,3.75,0.791,5.651c0.273,2.102,1.762,3.82,3.793,4.38c0.568,0.157,1.13,0.338,1.689,0.523l3.643-3.642
	c-1.341-0.529-2.703-1-4.092-1.383c-0.215-0.059-0.373-0.248-0.404-0.482c-0.252-1.93-0.521-3.86-0.803-5.737
	C59.275,1.917,57.047,0,54.471,0H45.53c-2.576,0-4.806,1.917-5.186,4.458c-0.281,1.877-0.551,3.808-0.803,5.738
	c-0.031,0.234-0.189,0.423-0.404,0.482c-3.228,0.89-6.342,2.18-9.255,3.835c-0.196,0.111-0.443,0.089-0.63-0.054
	c-1.543-1.187-3.1-2.362-4.627-3.491c-2.066-1.528-4.998-1.306-6.82,0.516l-6.321,6.321c-1.822,1.822-2.044,4.754-0.515,6.82
	c1.133,1.533,2.308,3.089,3.491,4.627c0.144,0.187,0.165,0.434,0.053,0.629c-1.656,2.915-2.946,6.029-3.835,9.256
	c-0.059,0.214-0.248,0.373-0.481,0.403c-1.926,0.251-3.856,0.521-5.738,0.803C1.917,40.723,0,42.953,0,45.53v8.941
	c0,2.576,1.917,4.807,4.458,5.187c1.881,0.282,3.812,0.553,5.738,0.803c0.234,0.031,0.423,0.188,0.482,0.404
	c0.889,3.227,2.18,6.341,3.835,9.256c0.111,0.194,0.09,0.442-0.054,0.629c-1.186,1.541-2.36,3.099-3.491,4.627
	c-1.528,2.065-1.307,4.998,0.515,6.819l6.322,6.322c1.822,1.82,4.754,2.043,6.82,0.515c1.527-1.13,3.083-2.304,4.627-3.49
	c0.187-0.146,0.434-0.165,0.629-0.056c2.914,1.656,6.028,2.947,9.256,3.837c0.214,0.059,0.373,0.247,0.403,0.481
	c0.252,1.93,0.522,3.859,0.803,5.736c0.38,2.542,2.61,4.459,5.186,4.459h8.942c2.575,0,4.807-1.917,5.186-4.459
	c0.281-1.879,0.551-3.811,0.803-5.736c0.031-0.234,0.189-0.424,0.404-0.482c3.227-0.891,6.341-2.18,9.255-3.836
	c0.196-0.11,0.442-0.09,0.63,0.054c1.543,1.188,3.1,2.362,4.627,3.492c2.064,1.526,4.997,1.307,6.818-0.517l6.322-6.32
	c1.821-1.822,2.043-4.754,0.516-6.82c-1.133-1.529-2.307-3.086-3.491-4.626c-0.144-0.188-0.165-0.435-0.054-0.63
	C86.4,68.51,87.189,66.836,87.876,65.121z"/>
<g>
	<g>
		<g>
			<path fill="#126CA0" d="M44.867,60.34c-1.16,0-2.103-0.943-2.103-2.103s0.943-2.104,2.103-2.104h1.676v-9.331
				c0-2.221,1.807-4.028,4.028-4.028h5.594c2.222,0,4.027,1.807,4.027,4.028v9.331h4.433V37.223c0-2.221,1.807-4.028,4.028-4.028
				h5.592c2.221,0,4.028,1.807,4.028,4.028v18.911h4.433V20.76c0-2.221,1.808-4.028,4.028-4.028h5.592
				c2.222,0,4.028,1.807,4.028,4.028v35.374h1.541c1.16,0,2.104,0.944,2.104,2.104s-0.943,2.103-2.103,2.103H44.867z M92.149,56.134
				V20.937H86.91v35.197H92.149z M74.067,56.134V37.399h-5.24v18.735H74.067z M55.986,56.134V46.98h-5.24v9.153H55.986z"/>
			<path fill="#126CA0" d="M97.896,57.096h-2.502V20.76c0-1.691-1.377-3.066-3.067-3.066h-5.592c-1.692,0-3.067,1.376-3.067,3.066
				v36.335h-6.354V37.223c0-1.691-1.377-3.067-3.067-3.067h-5.592c-1.693,0-3.067,1.376-3.067,3.067v19.873h-6.354V46.803
				c0-1.691-1.376-3.066-3.066-3.066h-5.594c-1.69,0-3.066,1.376-3.066,3.066v10.292h-2.638c-0.63,0-1.141,0.511-1.141,1.142
				s0.511,1.142,1.141,1.142h53.03c0.629,0,1.142-0.511,1.142-1.142S98.525,57.096,97.896,57.096z M56.948,57.096h-7.163V46.803
				c0-0.433,0.353-0.784,0.784-0.784h5.593c0.434,0,0.785,0.352,0.785,0.784L56.948,57.096L56.948,57.096z M75.029,57.096h-7.163
				V37.223c0-0.434,0.353-0.786,0.785-0.786h5.592c0.434,0,0.786,0.353,0.786,0.786V57.096L75.029,57.096z M93.111,57.096h-7.163
				V20.76c0-0.433,0.353-0.785,0.785-0.785h5.593c0.433,0,0.784,0.352,0.784,0.785L93.111,57.096L93.111,57.096z"/>
		</g>
	</g>
	<g>
		<g>
			<path fill="#126CA0" d="M54.648,33.688c-0.563,0-1.092-0.219-1.489-0.618c-0.817-0.818-0.817-2.151,0.002-2.971L73.674,9.589
				c0.389-0.391,0.931-0.615,1.484-0.615c0.563,0,1.092,0.219,1.488,0.616l3.572,3.574l8.958-8.958h-1.942
				c-1.159,0-2.103-0.943-2.103-2.102c0-1.16,0.943-2.103,2.103-2.103h6.937l0.081,0.001c0.563,0,1.092,0.219,1.488,0.616
				c0.405,0.405,0.628,0.963,0.612,1.538l0.003,6.559c0,1.16-0.943,2.103-2.103,2.103S92.15,9.874,92.15,8.714V7.177L81.705,17.622
				c-0.396,0.396-0.925,0.615-1.485,0.615c-0.562,0-1.089-0.219-1.486-0.615l-3.575-3.573L56.135,33.072
				C55.739,33.469,55.211,33.688,54.648,33.688z"/>
			<path fill="#126CA0" d="M95.391,2.161c0.017-0.312-0.094-0.627-0.332-0.865c-0.236-0.237-0.553-0.347-0.865-0.332
				c-0.02,0-0.036-0.002-0.055-0.002h-6.904c-0.631,0-1.142,0.511-1.142,1.141c0,0.629,0.511,1.141,1.142,1.141h4.264L80.219,14.522
				l-4.253-4.253c-0.214-0.214-0.503-0.333-0.808-0.333c-0.302,0-0.592,0.12-0.805,0.333L53.841,30.78
				c-0.444,0.445-0.444,1.167,0,1.613c0.223,0.223,0.515,0.334,0.808,0.334c0.292,0,0.584-0.111,0.807-0.334l19.703-19.703
				l4.255,4.252c0.445,0.445,1.168,0.445,1.612,0L93.111,4.856v3.857c0,0.63,0.511,1.141,1.142,1.141s1.142-0.511,1.142-1.141V2.216
				C95.394,2.199,95.392,2.179,95.391,2.161z"/>
		</g>
	</g>
</g>
<path fill="#126CA0" d="M65.059,65.119c-3.859,3.845-9.181,6.223-15.059,6.223c-11.787,0-21.341-9.556-21.341-21.342
	c0-11.205,8.639-20.375,19.617-21.254l4.189-4.158c-0.812-0.078-1.634-0.121-2.466-0.121c-14.102,0-25.532,11.432-25.532,25.533
	S35.898,75.533,50,75.533c8.442,0,15.924-4.1,20.572-10.414H65.059z"/>
</svg>
