<?xml version="1.0" encoding="utf-8"?>
<!-- Generator: Adobe Illustrator 16.0.0, SVG Export Plug-In . SVG Version: 6.00 Build 0)  -->
<!DOCTYPE svg PUBLIC "-//W3C//DTD SVG 1.1//EN" "http://www.w3.org/Graphics/SVG/1.1/DTD/svg11.dtd">
<svg version="1.1" id="Layer_1" xmlns="http://www.w3.org/2000/svg" xmlns:xlink="http://www.w3.org/1999/xlink" x="0px" y="0px"
	 width="100px" height="100px" viewBox="0 0 100 100" enable-background="new 0 0 100 100" xml:space="preserve">
<g>
	<g id="XMLID_4194_">
		<path id="XMLID_9995_" fill="#FFCC66" d="M21.041,31.415l4.274,0.011c3.083,0.006,5.587-2.487,5.596-5.574l0.028-12.768
			c0.006-3.087-2.488-5.594-5.575-5.599l-4.27-0.008c0,0-20.984-0.865-21.094,42.463c-0.114,43.34,20.876,42.574,20.876,42.574
			l4.278,0.007c3.083,0.007,5.586-2.483,5.596-5.564l0.042-12.768c0.008-3.073-2.498-5.597-5.574-5.601l-4.27-0.01
			c-6.828-0.028-7.011-18.592-7.011-18.592S14.205,31.406,21.041,31.415z"/>
		<path id="XMLID_10031_" fill="#FFCC66" d="M25.218,68.589l-4.052-0.006v23.936l3.988,0.006c3.083,0.004,5.586-2.486,5.596-5.567
			l0.042-12.768C30.8,71.116,28.294,68.593,25.218,68.589z"/>
		<path id="XMLID_10032_" fill="#FFCC66" d="M25.364,7.485l-4.198-0.004v23.939l4.148,0.005c3.083,0.005,5.587-2.487,5.596-5.574
			l0.028-12.768C30.945,9.997,28.451,7.49,25.364,7.485z"/>
	</g>
	<g id="XMLID_10029_">
		<g>
			<path fill="#FFCC66" d="M94.27,4.155H49.339c-3.165,0-5.73,2.565-5.73,5.73v80.229c0,3.163,2.565,5.729,5.73,5.729H94.27
				c3.165,0,5.73-2.566,5.73-5.729V9.886C100,6.721,97.435,4.155,94.27,4.155z M66.075,6.879h11.459
				c0.583,0,1.058,0.475,1.058,1.058c0,0.585-0.475,1.059-1.058,1.059H66.075c-0.585,0-1.059-0.474-1.059-1.059
				C65.017,7.354,65.49,6.879,66.075,6.879z M59.469,6.879c0.585,0,1.058,0.475,1.058,1.059c0,0.585-0.473,1.058-1.058,1.058
				c-0.584,0-1.059-0.473-1.059-1.058C58.41,7.354,58.885,6.879,59.469,6.879z M71.804,93.496c-1.963,0-3.554-1.592-3.554-3.555
				c0-1.964,1.591-3.555,3.554-3.555s3.554,1.591,3.554,3.555C75.357,91.904,73.767,93.496,71.804,93.496z M97.293,83.721H46.314
				V12.285h50.979V83.721z"/>
		</g>
		<g>
			<path fill="#FFCC66" d="M71.804,31.979c-9.952,0-18.02,8.068-18.02,18.021c0,9.952,8.067,18.02,18.02,18.02
				s18.021-8.067,18.021-18.02C89.824,40.048,81.756,31.979,71.804,31.979z M77.309,55.483c-10.417,10.473-15.29,5.228-15.29,5.228
				l-1.033-1.029c-0.744-0.741-0.747-1.944-0.008-2.689l3.067-3.086c0.738-0.742,1.95-0.746,2.693-0.007l1.03,1.027
				c1.652,1.639,6.17-2.79,6.17-2.79s4.414-4.544,2.764-6.189l-1.031-1.026c-0.745-0.742-0.748-1.946-0.007-2.692l3.07-3.083
				c0.743-0.746,1.947-0.749,2.693-0.007l1.03,1.027C82.458,40.166,87.723,45.015,77.309,55.483z"/>
		</g>
	</g>
	<path id="XMLID_10009_" fill="#FFCC66" d="M20.201,53.083h9.635v2.173c0,0.56,0.601,0.914,1.09,0.643l9.533-5.256
		c0.506-0.278,0.506-1.008,0-1.287l-9.533-5.255c-0.489-0.271-1.09,0.084-1.09,0.644v2.173h-9.635c-0.406,0-0.735,0.329-0.735,0.735
		v4.696C19.465,52.755,19.794,53.083,20.201,53.083z"/>
</g>
</svg>
