<?xml version="1.0" encoding="utf-8"?>
<!-- Generator: Adobe Illustrator 16.0.0, SVG Export Plug-In . SVG Version: 6.00 Build 0)  -->
<!DOCTYPE svg PUBLIC "-//W3C//DTD SVG 1.1//EN" "http://www.w3.org/Graphics/SVG/1.1/DTD/svg11.dtd">
<svg version="1.1" id="Layer_1" xmlns="http://www.w3.org/2000/svg" xmlns:xlink="http://www.w3.org/1999/xlink" x="0px" y="0px"
	 width="100px" height="100px" viewBox="0 0 100 100" enable-background="new 0 0 100 100" xml:space="preserve">
<g>
	<path fill="#126CA0" d="M47.296,97.297C21.217,97.297,0,76.08,0,50S21.217,2.704,47.296,2.704S94.593,23.921,94.593,50
		c0,3.052-0.293,6.107-0.871,9.076c-0.226,1.16-1.351,1.92-2.511,1.693c-1.161-0.227-1.919-1.352-1.693-2.512
		c0.525-2.699,0.792-5.479,0.792-8.257c0-23.718-19.296-43.014-43.014-43.014C23.579,6.987,4.283,26.283,4.283,50
		c0,23.718,19.296,43.013,43.013,43.013c4.63,0,9.185-0.73,13.537-2.172c1.123-0.375,2.334,0.236,2.706,1.359
		c0.372,1.121-0.236,2.334-1.359,2.705C57.392,96.492,52.385,97.297,47.296,97.297z"/>
	<path fill="#126CA0" d="M47.296,97.297c-6.229,0-11.934-5.15-16.065-14.502C27.344,74,25.205,62.354,25.205,50
		s2.14-24,6.026-32.795c4.131-9.352,9.837-14.502,16.065-14.502s11.935,5.15,16.066,14.502C67.248,26,69.388,37.647,69.388,50
		c0,1.183-0.959,2.142-2.142,2.142S65.105,51.184,65.105,50c0-25.73-9.209-43.014-17.81-43.014c-8.6,0-17.809,17.284-17.809,43.014
		s9.208,43.013,17.809,43.013c3.505,0,7.101-2.832,10.125-7.973c0.601-1.02,1.912-1.359,2.933-0.76
		c1.019,0.6,1.359,1.912,0.76,2.932C57.232,93.811,52.454,97.297,47.296,97.297z"/>
	<path fill="#126CA0" d="M14.097,82.395c-0.715,0-1.414-0.357-1.819-1.01c-0.625-1.004-0.319-2.324,0.685-2.949
		c8.989-5.604,21.182-8.689,34.333-8.689c2.857,0,5.718,0.15,8.501,0.447c1.177,0.125,2.028,1.18,1.903,2.355
		c-0.125,1.178-1.179,2.029-2.356,1.904c-2.634-0.281-5.341-0.424-8.048-0.424c-12.182,0-23.871,2.932-32.068,8.041
		C14.875,82.289,14.484,82.395,14.097,82.395z"/>
	<path fill="#126CA0" d="M47.297,30.253C47.296,30.253,47.297,30.253,47.297,30.253c-13.116,0-25.731-3.23-34.613-8.863l2.294-3.617
		c8.214,5.21,19.994,8.198,32.318,8.197c12.38,0,24.194-3.009,32.415-8.258l2.305,3.61C73.126,26.998,60.47,30.253,47.297,30.253z"
		/>
	<path fill="#126CA0" d="M91.37,52.143H3.223c-1.183,0-2.142-0.959-2.142-2.142s0.959-2.142,2.142-2.142H91.37
		c1.183,0,2.142,0.958,2.142,2.142S92.553,52.143,91.37,52.143z"/>
	<path fill="#126CA0" d="M97.509,67.934c0.507,0.506,0.507,1.33,0,1.836c-0.026,0.027-0.055,0.053-0.083,0.076l-0.264,0.174
		l-9.694,6.307l12.198,12.197c0.459,0.508,0.445,1.299-0.045,1.789l-6.453,6.453c-0.49,0.49-1.279,0.504-1.788,0.045L79.182,84.611
		l-6.307,9.695l-0.174,0.262c-0.023,0.029-0.049,0.059-0.075,0.084c-0.506,0.506-1.33,0.506-1.837,0
		c-0.146-0.146-0.253-0.322-0.313-0.512c-0.01-0.021-0.016-0.045-0.02-0.07L59.37,58.152c-0.01-0.023-0.016-0.047-0.021-0.07
		c-0.118-0.432-0.006-0.916,0.333-1.256c0.341-0.34,0.82-0.453,1.254-0.334l0.1,0.031c0.021,0.004,0.036,0.012,0.055,0.018
		l35.837,11.061c0.024,0.004,0.047,0.01,0.069,0.02C97.187,67.68,97.362,67.787,97.509,67.934z"/>
</g>
</svg>
