<?xml version="1.0" encoding="utf-8"?>
<!-- Generator: Adobe Illustrator 16.0.0, SVG Export Plug-In . SVG Version: 6.00 Build 0)  -->
<!DOCTYPE svg PUBLIC "-//W3C//DTD SVG 1.1//EN" "http://www.w3.org/Graphics/SVG/1.1/DTD/svg11.dtd">
<svg version="1.1" id="Layer_1" xmlns="http://www.w3.org/2000/svg" xmlns:xlink="http://www.w3.org/1999/xlink" x="0px" y="0px"
	 width="100px" height="100px" viewBox="0 0 100 100" enable-background="new 0 0 100 100" xml:space="preserve">
<g>
	<circle fill="#126CA0" cx="10.416" cy="6.432" r="6.431"/>
	<circle fill="#126CA0" cx="35.294" cy="6.432" r="6.431"/>
	<circle fill="#126CA0" cx="60.174" cy="6.432" r="6.432"/>
	<circle fill="#126CA0" cx="10.416" cy="30.549" r="6.431"/>
	<circle fill="#126CA0" cx="35.294" cy="30.549" r="6.431"/>
	<path fill="#126CA0" d="M91.23,50.323c-2.888-0.136-5.271,2.165-5.271,5.022v-2.545c0-2.677-2.057-4.98-4.73-5.106
		c-2.854-0.134-5.211,2.14-5.211,4.965v-0.177c0-3.594-2.354-6.508-5.256-6.508l0,0c-2.903,0-5.257,2.914-5.257,6.508v-6.508V34.647
		c0-0.158-0.01-0.315-0.022-0.471c0.707-1.033,1.123-2.282,1.123-3.628c0-3.552-2.88-6.432-6.432-6.432s-6.432,2.879-6.432,6.432
		c0,1.097,0.276,2.128,0.76,3.032c-0.049,0.297-0.081,0.6-0.081,0.911v35.823L44.333,66.06c-2.309-0.975-5.047-0.208-6.371,1.92
		c-1.388,2.231-0.837,5.103,1.197,6.672l14.678,11.325c0.384,0.296,0.684,0.684,0.895,1.119
		c3.741,7.729,11.522,12.751,20.087,12.901c8.399,0.146,16.188-4.415,20.266-11.712c0.621-1.11,0.932-2.368,0.932-3.642V55.487
		C96.016,52.78,93.935,50.45,91.23,50.323z"/>
	<circle fill="#126CA0" cx="10.416" cy="54.666" r="6.431"/>
	<circle fill="#126CA0" cx="35.294" cy="54.666" r="6.431"/>
</g>
</svg>
