<?xml version="1.0" encoding="utf-8"?>
<!-- Generator: Adobe Illustrator 16.0.0, SVG Export Plug-In . SVG Version: 6.00 Build 0)  -->
<!DOCTYPE svg PUBLIC "-//W3C//DTD SVG 1.1//EN" "http://www.w3.org/Graphics/SVG/1.1/DTD/svg11.dtd">
<svg version="1.1" id="Layer_1" xmlns="http://www.w3.org/2000/svg" xmlns:xlink="http://www.w3.org/1999/xlink" x="0px" y="0px"
	 width="100px" height="100px" viewBox="0 0 100 100" enable-background="new 0 0 100 100" xml:space="preserve">
<g>
	<path fill="#FFD14A" d="M41.97,89.99H13.907V11.954h5.521v3.811c0,2.522,2.053,4.576,4.577,4.576c2.523,0,4.577-2.053,4.577-4.576
		v-3.811h41.451v39.019c0,0.985,0.798,1.784,1.783,1.784s1.785-0.799,1.785-1.784V10.169c0-0.985-0.8-1.785-1.785-1.785H28.582
		V7.238C28.582,3.247,25.335,0,21.344,0c-3.991,0-7.238,3.247-7.238,7.238v1.039c0,0.037,0.008,0.071,0.011,0.108h-1.994
		c-0.986,0-1.785,0.799-1.785,1.785v81.605c0,0.985,0.798,1.785,1.785,1.785H41.97c0.986,0,1.785-0.8,1.785-1.785
		C43.755,90.791,42.956,89.99,41.97,89.99z M25.012,15.765c0,0.555-0.451,1.006-1.007,1.006c-0.555,0-1.007-0.451-1.007-1.006
		v-3.811h2.014V15.765z M17.675,8.277V7.238c0-2.023,1.646-3.668,3.669-3.668c2.023,0,3.668,1.646,3.668,3.668v1.147h-2.014V8.13
		c0-0.985-0.799-1.785-1.785-1.785c-0.985,0-1.785,0.8-1.785,1.785v0.254h-1.765C17.667,8.348,17.675,8.314,17.675,8.277z"/>
	<path fill="#FFD14A" d="M88.652,86.396c1.633-2.486,1.011-4.943,0.063-6.518c0.317-0.898,0.309-1.747,0.288-2.074
		c-0.019-1.422-0.58-2.646-1.631-3.547c-2.544-2.18-7.517-1.939-11.238-1.363c-0.342,0.054-0.67,0.123-0.979,0.188
		c-0.016,0.004-0.033,0.009-0.051,0.012c0.073-0.923,0.475-2.236,0.861-3.512c0.499-1.645,1.016-3.344,1.168-5.018
		c0.194-2.135-0.707-4.217-2.41-5.568c-1.353-1.072-2.964-1.445-4.309-0.998c-2.48,0.822-2.998,3.514-2.447,5.857
		c-0.724,2.443-3.475,7.441-4.855,9.545c-0.416,0.633-0.863,1.121-1.338,1.639c-0.834,0.91-1.777,1.939-2.531,3.756
		c-0.153,0.367-0.545,0.639-0.846,0.801c-0.475,0.254-1.051,0.397-1.715,0.424l-5.648,0.219c-1.892,0.074-3.374,1.613-3.374,3.507
		v11.969c0,1.935,1.574,3.511,3.51,3.511h9.554c0.911,0.113,6.601,0.775,16.02,0.775c4.334,0,7.351-1.093,8.967-3.248
		c1.078-1.438,1.252-2.966,1.202-4.013C89.082,90.807,89.229,88.254,88.652,86.396z M85.279,84.941
		c-0.502,0.561-0.588,1.396-0.23,2.058c0.336,0.623,0.909,2.21-1.017,3.454c-0.646,0.417-0.944,1.229-0.751,1.975
		c0.013,0.051,0.308,1.232-0.451,2.213c-0.893,1.154-3.055,1.789-6.088,1.789c-9.826,0-15.614-0.753-15.672-0.761
		c-0.078-0.01-0.157-0.015-0.235-0.015l-9.606,0.06V83.803l5.592-0.216c1.213-0.048,2.312-0.332,3.27-0.848
		c1.164-0.628,2.012-1.519,2.449-2.575c0.514-1.234,1.109-1.887,1.868-2.713c0.522-0.57,1.114-1.217,1.688-2.09
		c0.992-1.512,4.731-7.877,5.459-11.121c0.069-0.305,0.057-0.621-0.035-0.918c-0.199-0.645-0.265-1.842,0.021-1.936
		c0.095-0.025,0.506,0.026,1.006,0.438c0.274,0.226,1.157,1.067,1.034,2.416c-0.118,1.31-0.581,2.829-1.028,4.303
		c-0.528,1.74-1.03,3.386-1.03,4.838c0,0.481,0,1.948,1.084,2.823c1.053,0.852,2.299,0.584,3.301,0.368
		c0.246-0.052,0.508-0.11,0.779-0.152c4.818-0.754,7.48-0.211,8.366,0.55c0.199,0.17,0.384,0.396,0.384,0.901
		c0,0.035,0.002,0.093,0.004,0.129c0.018,0.285-0.058,0.724-0.178,0.863c-0.604,0.696-0.578,1.741,0.063,2.407
		C85.604,81.563,86.918,83.109,85.279,84.941z"/>
	<path fill="#FFD14A" d="M60.65,20.206h-14.08c-0.985,0-1.785,0.799-1.785,1.785c0,0.986,0.799,1.785,1.785,1.785h14.082
		c0.984,0,1.783-0.799,1.783-1.785C62.436,21.005,61.637,20.206,60.65,20.206z"/>
	<path fill="#FFD14A" d="M60.65,26.75h-14.08c-0.985,0-1.785,0.8-1.785,1.785c0,0.985,0.799,1.785,1.785,1.785h14.082
		c0.984,0,1.783-0.799,1.783-1.785C62.436,27.549,61.637,26.75,60.65,26.75z"/>
	<path fill="#FFD14A" d="M60.65,39.01H22.973c-0.986,0-1.785,0.799-1.785,1.785c0,0.986,0.799,1.785,1.785,1.785h37.679
		c0.984,0,1.783-0.8,1.783-1.785S61.637,39.01,60.65,39.01z"/>
	<path fill="#FFD14A" d="M60.65,46.623H22.973c-0.986,0-1.785,0.8-1.785,1.785c0,0.985,0.799,1.785,1.785,1.785h37.679
		c0.984,0,1.783-0.799,1.783-1.785C62.436,47.422,61.637,46.623,60.65,46.623z"/>
	<path fill="#FFD14A" d="M62.436,56.021c0-0.984-0.799-1.785-1.783-1.785H22.973c-0.986,0-1.785,0.801-1.785,1.785
		c0,0.985,0.799,1.785,1.785,1.785h37.679C61.637,57.807,62.436,57.008,62.436,56.021z"/>
	<path fill="#FFD14A" d="M22.973,61.852c-0.986,0-1.785,0.799-1.785,1.784s0.799,1.784,1.785,1.784h29.151
		c0.985,0,1.785-0.799,1.785-1.784s-0.8-1.784-1.785-1.784H22.973z"/>
</g>
</svg>
