<?xml version="1.0" encoding="utf-8"?>
<!-- Generator: Adobe Illustrator 16.0.0, SVG Export Plug-In . SVG Version: 6.00 Build 0)  -->
<!DOCTYPE svg PUBLIC "-//W3C//DTD SVG 1.1//EN" "http://www.w3.org/Graphics/SVG/1.1/DTD/svg11.dtd">
<svg version="1.1" id="Layer_1" xmlns="http://www.w3.org/2000/svg" xmlns:xlink="http://www.w3.org/1999/xlink" x="0px" y="0px"
	 width="100px" height="100px" viewBox="0 0 100 100" enable-background="new 0 0 100 100" xml:space="preserve">
<g>
	<path fill="#126CA0" d="M28.225,36.083C24.7,30.922,20.964,25.904,17.027,21.05c-3.102-3.824-6.34-7.527-9.666-11.157
		c-0.444-0.484-0.365-1.246,0.17-1.627c1.316-0.938,2.633-1.876,3.95-2.814c1.55-1.104,3.578-1.412,5.384-0.809
		c0.815,0.272,1.566,0.727,2.198,1.308c0.425,0.391,0.79,0.851,1.181,1.275c2.691,2.917,5.33,5.883,7.823,8.972
		c2.567,3.181,4.962,6.496,7.247,9.885c1.042,1.547,2.052,3.117,3.092,4.666c0.811,1.207,1.156,2.689,0.966,4.131
		c-0.188,1.437-0.9,2.778-1.99,3.734c-0.745,0.654-1.616,1.186-2.424,1.759c-0.46,0.327-1.161,0.824-1.727,1.226
		c-0.507,0.36-1.209,0.224-1.548-0.298C30.547,39.549,29.402,37.806,28.225,36.083z M56.966,69.008l-2.585,3.539
		c-0.949,0.414-3.067,0.918-5.682-0.904c-4.206-2.934-8.096-6.193-11.661-9.773l0.005-0.005c-0.002-0.003-0.002-0.003-0.005-0.006
		v0.011c-0.003-0.004-0.007-0.007-0.01-0.011c-3.584-3.567-6.848-7.461-9.785-11.671c-1.822-2.614-1.318-4.732-0.904-5.681
		l3.54-2.585c-3.102-4.8-6.625-9.854-10.621-15.055c-4.451-5.792-8.883-10.979-13.137-15.587c-0.208,0.284-0.419,0.583-0.629,0.9
		c-0.207,0.312-0.411,0.636-0.613,0.971l0.008-0.002l-0.01,0.021c-0.988,1.649-1.922,3.621-2.703,5.933
		c-4.625,13.685-0.624,26.228,0.668,29.911c3.187,9.094,8.292,15.727,19.858,27.175c11.448,11.566,18.08,16.671,27.174,19.857
		c3.685,1.293,16.227,5.293,29.911,0.669c2.313-0.781,4.284-1.715,5.933-2.703L85.738,94l-0.003,0.008
		c0.336-0.201,0.659-0.406,0.972-0.613c0.316-0.21,0.616-0.421,0.9-0.629c-4.609-4.255-9.795-8.687-15.588-13.138
		C66.819,75.633,61.766,72.109,56.966,69.008z M82.689,70.82c-3.182-2.567-6.496-4.963-9.885-7.247
		c-1.547-1.043-3.117-2.053-4.665-3.093c-1.207-0.811-2.69-1.155-4.131-0.966c-1.437,0.188-2.778,0.9-3.734,1.99
		c-0.654,0.745-1.187,1.616-1.76,2.424c-0.326,0.461-0.823,1.161-1.226,1.728c-0.359,0.507-0.223,1.209,0.299,1.548
		c1.749,1.135,3.492,2.28,5.215,3.457c5.162,3.524,10.179,7.261,15.033,11.198c3.824,3.102,7.527,6.34,11.157,9.665
		c0.484,0.444,1.246,0.365,1.627-0.17c0.938-1.316,1.876-2.633,2.814-3.949c1.104-1.55,1.412-3.578,0.81-5.384
		c-0.272-0.815-0.728-1.566-1.309-2.198c-0.391-0.426-0.851-0.789-1.274-1.181C88.745,75.951,85.778,73.313,82.689,70.82z"/>
	<g>
		<g>
			<path fill="#126CA0" d="M48.306,48.7c0.59,0.108,1.178-0.214,1.396-0.772c6.917-17.692,20.482-21.357,28.038-21.955
				c0.026-0.002,0.053-0.002,0.079-0.002c0.334,0,0.665,0.169,0.931,0.477c0.348,0.396,0.545,0.971,0.545,1.581v7.288
				c0,0.562,0.223,1.08,0.629,1.46c0.376,0.353,0.867,0.546,1.381,0.546l0,0c0.517,0,1.009-0.2,1.385-0.564l16.698-16.097
				c0.391-0.376,0.613-0.901,0.613-1.443c0-0.541-0.223-1.067-0.613-1.443L82.688,1.677c-0.497-0.479-1.194-0.674-1.884-0.5
				c-0.907,0.229-1.511,1.091-1.511,2.026v4.795c0,1.031-0.579,1.929-1.318,2.045c-11.853,1.856-20.408,7.28-25.427,16.121
				c-3.276,5.764-5.049,12.917-5.274,21.274C47.258,48.054,47.699,48.589,48.306,48.7L48.306,48.7z"/>
		</g>
	</g>
</g>
</svg>
