<?xml version="1.0" encoding="utf-8"?>
<!-- Generator: Adobe Illustrator 16.0.0, SVG Export Plug-In . SVG Version: 6.00 Build 0)  -->
<!DOCTYPE svg PUBLIC "-//W3C//DTD SVG 1.1//EN" "http://www.w3.org/Graphics/SVG/1.1/DTD/svg11.dtd">
<svg version="1.1" id="Layer_1" xmlns="http://www.w3.org/2000/svg" xmlns:xlink="http://www.w3.org/1999/xlink" x="0px" y="0px"
	 width="100px" height="100px" viewBox="0 0 100 100" enable-background="new 0 0 100 100" xml:space="preserve">
<g>
	<g>
		<path fill="#FFD14A" d="M54.995,58.855h2.169l1.093-0.006c0.39-0.001,0.781-0.033,1.167-0.102c1.545-0.252,3-0.99,4.121-2.077
			c1.121-1.088,1.907-2.521,2.211-4.058c0.306-1.529,0.14-3.156-0.486-4.593c-0.309-0.714-0.729-1.387-1.24-1.976
			c-0.253-0.294-0.529-0.572-0.826-0.83c-0.195-0.174-0.524-0.41-0.615-0.477c0.01-0.109,0.018-0.246,0.017-0.367
			c-0.005-0.26-0.036-0.515-0.097-0.767c-0.127-0.5-0.364-0.973-0.695-1.365c-0.333-0.392-0.752-0.712-1.223-0.923
			c-0.234-0.102-0.482-0.182-0.736-0.231c-0.063-0.008-0.125-0.026-0.184-0.029l-0.107-0.013l-0.088-0.343
			c-0.077-0.272-0.164-0.541-0.262-0.804c-0.201-0.529-0.443-1.039-0.731-1.522c-0.571-0.973-1.312-1.843-2.181-2.563
			c-1.729-1.448-3.98-2.256-6.234-2.25c-2.255-0.007-4.506,0.802-6.233,2.25c-0.866,0.721-1.611,1.587-2.183,2.559
			c-0.285,0.488-0.532,0.998-0.729,1.527c-0.101,0.262-0.187,0.532-0.262,0.804l-0.091,0.338h-0.004
			c0.014-0.002-0.167,0.017-0.285,0.042c-0.26,0.042-0.511,0.119-0.749,0.224c-0.483,0.206-0.912,0.525-1.247,0.925
			c-0.336,0.397-0.583,0.879-0.703,1.385c-0.065,0.254-0.093,0.515-0.098,0.777c-0.001,0.128,0.006,0.262,0.02,0.391v-0.015
			L37.5,44.767l-0.064,0.043l-0.124,0.093c-0.167,0.127-0.325,0.261-0.481,0.396c-0.311,0.28-0.602,0.579-0.864,0.902
			c-0.522,0.645-0.949,1.377-1.239,2.156c-0.593,1.561-0.663,3.305-0.193,4.905c0.46,1.604,1.461,3.041,2.793,4.041
			c1.328,1.002,2.995,1.556,4.658,1.553h8.671H54.995z"/>
		<path fill="#FFD14A" d="M9.051,56.799l-1.545-0.338l-0.6,2.744C5.358,52.59,5.345,45.618,6.921,39
			c1.774-7.547,5.569-14.611,10.888-20.256c5.306-5.659,12.132-9.858,19.569-12.062c7.429-2.24,15.446-2.474,22.985-0.653
			l0.369-1.541c-7.811-1.885-16.115-1.644-23.807,0.675c-7.697,2.28-14.777,6.634-20.271,12.495
			c-5.508,5.846-9.44,13.159-11.278,20.979c-1.659,6.981-1.611,14.35,0.086,21.314L3.2,57.764l-1.102,1.142l5.367,5.188
			L9.051,56.799z"/>
		<path fill="#FFD14A" d="M91.999,31.979l-1.586,7.296l1.546,0.338l0.637-2.915c1.555,5.313,2.124,10.912,1.617,16.426
			c-0.582,6.431-2.598,12.726-5.848,18.308c-3.245,5.582-7.723,10.449-13.033,14.123c-5.301,3.688-11.43,6.17-17.793,7.266
			l0.271,1.564c6.587-1.139,12.932-3.709,18.426-7.527c5.504-3.81,10.139-8.846,13.498-14.632c3.363-5.776,5.456-12.298,6.055-18.96
			c0.526-5.721-0.064-11.533-1.683-17.041l2.158,2.085l1.101-1.139L91.999,31.979z"/>
		<path fill="#FFD14A" d="M98.037,5.655c0-1.09-0.891-1.978-1.982-1.978H79.563c0.022,0.155,0.039,0.31,0.04,0.452
			c0,0,0.049,1.674,0.085,2.926c0.014,0.677,0.02,4.772,0.021,8.908c-0.002,4.144-0.008,8.239-0.021,8.917
			c-0.036,1.251-0.085,2.922-0.085,2.925c-0.007,0.356-0.066,0.745-0.198,1.151h17.137c1.089,0,1.983-0.891,1.983-1.978
			L98.037,5.655z M78.281,4.166c-0.031-1.25-0.895-2.962-4.609-2.962c-3.713,0-4.578,1.712-4.612,2.962c0,0-0.043,1.672-0.079,2.92
			c-0.033,1.25-0.033,16.513,0,17.762c0.036,1.246,0.079,2.921,0.079,2.921c0.03,1.107,0.72,2.575,3.457,2.895
			c-0.075,0.087-0.157,0.166-0.256,0.244c-0.382,0.29-0.933,0.487-1.556,0.487c0,0-6.15,0-7.84,0
			c-0.795,0.003-1.34-0.144-1.635-0.361c-0.287-0.222-0.446-0.511-0.459-1.143c-0.006-0.474,0.377-1.333,1.631-2.236
			c0.651-0.48,1.265-0.965,2.43-1.424l-0.016,0.749c0,1.087,1.172,1.978,2.262,1.978h0.861c-0.134-0.406-0.195-0.794-0.203-1.149
			c0-0.004-0.039-1.675-0.076-2.926c-0.019-0.681-0.025-4.774-0.025-8.917c0-4.138,0.007-8.231,0.025-8.908
			c0.037-1.251,0.076-2.926,0.076-2.926c0.008-0.142,0.02-0.297,0.039-0.452h-0.039c-1.086,0-2.438,0.887-2.438,1.978l-0.444,19.458
			c-1.421,0.526-2.24,1.105-3.063,1.706c-1.396,1.019-2.039,2.094-2.05,3.071c-0.011,0.83,0.285,1.548,0.881,1.973
			c0.587,0.423,1.34,0.561,2.244,0.563c1.689,0,7.84,0,7.84,0c0.834-0.001,1.604-0.253,2.184-0.695
			c0.344-0.264,0.621-0.609,0.791-1.003c3.707-0.004,4.57-1.71,4.602-2.959c0,0,0.047-1.675,0.078-2.921
			c0.037-1.249,0.037-16.512,0-17.762C78.328,5.837,78.281,4.166,78.281,4.166z M93.794,6.205c1.057,0,1.916,0.857,1.916,1.891
			l0.127,3.868c0,1.056-0.858,1.914-1.911,1.914H83.691c-1.059,0-1.914-0.857-1.914-1.921l0.063-3.838
			c0-1.056,0.857-1.913,1.914-1.913H93.794z M82.088,15.963c0-0.183,0.15-0.327,0.332-0.327h3.049c0.18,0,0.327,0.145,0.327,0.327
			v1.733c0,0.179-0.147,0.331-0.327,0.331H82.42c-0.182,0-0.332-0.152-0.332-0.331V15.963z M82.088,19.83
			c0-0.184,0.15-0.33,0.332-0.33h3.049c0.18,0,0.327,0.146,0.327,0.33v1.726c0,0.181-0.147,0.327-0.327,0.327H82.42
			c-0.182,0-0.332-0.146-0.332-0.327V19.83z M82.088,23.686c0-0.185,0.15-0.335,0.332-0.335h3.049c0.18,0,0.327,0.15,0.327,0.335
			v1.722c0,0.185-0.147,0.334-0.327,0.334H82.42c-0.182,0-0.332-0.15-0.332-0.334V23.686z M91.662,15.963
			c0-0.183,0.15-0.327,0.332-0.327h3.121c0.175,0,0.324,0.145,0.324,0.327v1.733c0,0.179-0.149,0.331-0.324,0.331h-3.121
			c-0.182,0-0.332-0.152-0.332-0.331V15.963z M91.662,19.83c0-0.184,0.15-0.33,0.332-0.33h3.121c0.175,0,0.324,0.146,0.324,0.33
			v1.726c0,0.181-0.149,0.327-0.324,0.327h-3.121c-0.182,0-0.332-0.146-0.332-0.327V19.83z M91.662,23.686
			c0-0.185,0.15-0.335,0.332-0.335h3.121c0.175,0,0.324,0.15,0.324,0.335v1.722c0,0.185-0.149,0.334-0.324,0.334h-3.121
			c-0.182,0-0.332-0.15-0.332-0.334V23.686z M86.909,15.963c0-0.183,0.149-0.327,0.329-0.327h3.048c0.181,0,0.329,0.145,0.329,0.327
			v1.733c0,0.179-0.148,0.331-0.329,0.331h-3.048c-0.18,0-0.329-0.152-0.329-0.331V15.963z M86.909,19.83
			c0-0.184,0.149-0.33,0.329-0.33h3.048c0.181,0,0.329,0.146,0.329,0.33v1.726c0,0.181-0.148,0.327-0.329,0.327h-3.048
			c-0.18,0-0.329-0.146-0.329-0.327V19.83z M86.909,23.686c0-0.185,0.149-0.335,0.329-0.335h3.048c0.181,0,0.329,0.15,0.329,0.335
			v1.722c0,0.185-0.148,0.334-0.329,0.334h-3.048c-0.18,0-0.329-0.15-0.329-0.334V23.686z"/>
		<g>
			<g id="XMLID_3_">
				<g>
					<path fill="#FFD14A" d="M47.372,84.498c3.955,0,7.154,3.203,7.154,7.152c0,3.947-3.199,7.146-7.154,7.146
						c-3.947,0-7.147-3.199-7.147-7.146C40.224,87.701,43.424,84.498,47.372,84.498z M51.615,91.65c0-0.66-0.529-1.199-1.196-1.199
						h-1.848v-1.85c0-0.662-0.538-1.195-1.2-1.195c-0.658,0-1.196,0.533-1.196,1.195v1.85h-1.848c-0.662,0-1.2,0.539-1.2,1.199
						c0,0.656,0.538,1.193,1.2,1.193h1.848v1.848c0,0.666,0.538,1.199,1.196,1.199c0.662,0,1.2-0.533,1.2-1.199v-1.848h1.848
						C51.086,92.844,51.615,92.307,51.615,91.65z"/>
				</g>
			</g>
			<g>
				<path fill="#FFD14A" d="M31.729,75.234h11.759c1.211,0,2.197-0.99,2.197-2.199l-0.148-4.447c0-1.186-0.986-2.17-2.197-2.17
					H31.797c-1.209,0-2.198,0.984-2.198,2.195l-0.069,4.41C29.53,74.244,30.512,75.234,31.729,75.234z"/>
				<path fill="#FFD14A" d="M38.143,88.865h-2.338c-0.207,0-0.378-0.17-0.378-0.381v-1.979c0-0.213,0.171-0.385,0.378-0.385h3.501
					c0.05,0,0.09,0.037,0.132,0.057c0.465-0.678,1.019-1.285,1.639-1.821c-0.107-0.07-0.187-0.166-0.187-0.301v-1.986
					c0-0.21,0.171-0.378,0.375-0.378h3.588c0.208,0,0.379,0.168,0.379,0.378v0.181c0.689-0.156,1.404-0.246,2.144-0.246
					c0.412,0,0.81,0.033,1.212,0.08l-0.372-16.299c0-1.25-1.022-2.273-2.274-2.273h-18.96c0.025,0.178,0.047,0.354,0.05,0.518
					c0,0.003,0.047,1.928,0.09,3.362c0.018,0.776,0.025,5.488,0.025,10.237c0,4.765-0.007,9.467-0.025,10.248
					c-0.042,1.441-0.09,3.357-0.09,3.361c-0.009,0.41-0.083,0.863-0.232,1.324h10.977c-0.029-0.301-0.045-0.607-0.045-0.914
					C37.729,90.68,37.876,89.748,38.143,88.865z M39.683,84.056c0,0.212-0.171,0.38-0.377,0.38h-3.501
					c-0.207,0-0.378-0.168-0.378-0.38v-1.986c0-0.21,0.171-0.378,0.378-0.378h3.501c0.207,0,0.377,0.168,0.377,0.378V84.056z
					 M39.683,79.623c0,0.209-0.171,0.378-0.377,0.378h-3.501c-0.207,0-0.378-0.169-0.378-0.378v-1.994
					c0-0.207,0.171-0.375,0.378-0.375h3.501c0.207,0,0.377,0.168,0.377,0.375V79.623z M45.231,79.623
					c0,0.209-0.171,0.378-0.379,0.378h-3.588c-0.205,0-0.375-0.169-0.375-0.378v-1.994c0-0.207,0.171-0.375,0.375-0.375h3.588
					c0.208,0,0.379,0.168,0.379,0.375V79.623z M29.599,68.613c0-1.211,0.988-2.195,2.198-2.195H43.34
					c1.211,0,2.197,0.984,2.197,2.17l0.148,4.447c0,1.209-0.986,2.199-2.197,2.199H31.729c-1.216,0-2.199-0.99-2.199-2.211
					L29.599,68.613z M34.147,88.484c0,0.211-0.172,0.381-0.384,0.381h-3.5c-0.206,0-0.377-0.17-0.377-0.381v-1.979
					c0-0.213,0.171-0.385,0.377-0.385h3.5c0.211,0,0.384,0.172,0.384,0.385V88.484z M34.147,84.056c0,0.212-0.172,0.38-0.384,0.38
					h-3.5c-0.206,0-0.377-0.168-0.377-0.38v-1.986c0-0.21,0.171-0.378,0.377-0.378h3.5c0.211,0,0.384,0.168,0.384,0.378V84.056z
					 M34.147,79.623c0,0.209-0.172,0.378-0.384,0.378h-3.5c-0.206,0-0.377-0.169-0.377-0.378v-1.994
					c0-0.207,0.171-0.375,0.377-0.375h3.5c0.211,0,0.384,0.168,0.384,0.375V79.623z"/>
				<path fill="#FFD14A" d="M25.504,64.07c-0.032-1.435-1.03-3.4-5.296-3.4c-4.264,0-5.257,1.966-5.298,3.4
					c0,0-0.049,1.924-0.086,3.36c-0.041,1.435-0.041,18.972,0,20.409c0.038,1.438,0.086,3.357,0.086,3.357
					c0.038,1.275,0.828,2.959,3.976,3.326c-0.091,0.1-0.189,0.195-0.301,0.277c-0.435,0.334-1.068,0.561-1.784,0.561
					c0,0-7.065,0-9.01,0c-0.914,0.008-1.54-0.162-1.88-0.416c-0.329-0.254-0.509-0.584-0.522-1.307
					c-0.008-0.551,0.434-1.533,1.868-2.57c0.752-0.559,1.457-1.113,2.794-1.637l-0.021,0.857c0,1.248,1.348,2.273,2.6,2.273h0.989
					c-0.151-0.461-0.221-0.914-0.229-1.322c0-0.006-0.045-1.922-0.087-3.363c-0.023-0.781-0.031-5.483-0.031-10.248
					c0-4.752,0.008-9.459,0.031-10.24c0.042-1.432,0.087-3.356,0.087-3.359c0.003-0.163,0.017-0.34,0.044-0.518H13.39
					c-1.247,0-2.801,1.023-2.801,2.273l-0.511,22.359c-1.634,0.605-2.573,1.273-3.521,1.961c-1.608,1.168-2.349,2.404-2.355,3.533
					c-0.013,0.951,0.33,1.775,1.012,2.262c0.669,0.49,1.541,0.645,2.577,0.652c1.945,0,9.01,0,9.01,0
					c0.96-0.004,1.837-0.293,2.506-0.805c0.396-0.301,0.721-0.693,0.917-1.145c4.254-0.006,5.248-1.967,5.28-3.406
					c0,0,0.054-1.92,0.094-3.357c0.041-1.438,0.041-18.975,0-20.409C25.559,65.994,25.504,64.07,25.504,64.07z"/>
			</g>
		</g>
		<polyline fill="#FFD14A" points="88.537,41.855 91.959,31.75 100,38.761 		"/>
	</g>
	<polyline fill="#FFD14A" points="11.209,55.353 7.642,65.084 0,58.084 	"/>
</g>
</svg>
