<?xml version="1.0" encoding="utf-8"?>
<!-- Generator: Adobe Illustrator 16.0.0, SVG Export Plug-In . SVG Version: 6.00 Build 0)  -->
<!DOCTYPE svg PUBLIC "-//W3C//DTD SVG 1.1//EN" "http://www.w3.org/Graphics/SVG/1.1/DTD/svg11.dtd">
<svg version="1.1" id="Layer_1" xmlns="http://www.w3.org/2000/svg" xmlns:xlink="http://www.w3.org/1999/xlink" x="0px" y="0px"
	 width="100px" height="100px" viewBox="0 0 100 100" enable-background="new 0 0 100 100" xml:space="preserve">
<g>
	<path fill="#126CA0" d="M77.893,77.604c-0.533-1.208-1.441-2.478-2.977-2.979c-3.273-1.07-16.376-4.843-16.376-4.843
		s-3.526-1.074-5.845,1.164l-4.886,4.719c-0.006,0.006-0.011,0.011-0.018,0.016c-0.146,0.116-1.875,1.436-3.796,0.433
		c-1.261-0.658-7.146-5.191-12.876-10.944c-5.103-5.43-8.991-10.69-9.584-11.876c-0.969-1.938,0.379-3.645,0.498-3.789
		c0.005-0.006,0.01-0.012,0.017-0.018l4.802-4.803c2.279-2.279,1.266-5.824,1.266-5.824s-3.545-13.167-4.558-16.458
		c-0.475-1.543-1.729-2.474-2.926-3.028c-1.138-0.526-2.386-0.771-3.639-0.771h-2.296c-2.117,0-3.545,0.76-3.545,0.76
		c-0.397,0.233-7.896,4.433-9.622,9.115c-1.772,4.811-1.52,9.115-1.52,9.115c0,9.622,4.305,18.231,4.305,18.231
		c4.656,9.032,10.785,16.42,16.673,22.152c5.373,5.438,12.092,10.961,20.174,15.307c0,0,8.533,4.453,18.153,4.621
		c0,0,4.299,0.327,9.14-1.361c4.712-1.644,9.041-9.068,9.281-9.461c0,0,0.784-1.415,0.821-3.531l0.04-2.297
		C78.621,80.002,78.398,78.75,77.893,77.604z"/>
	<g>
		<g>
			<path fill="#126CA0" d="M96.16,54.535c-1.68,0-3.222-1.112-3.693-2.811C87.981,35.579,78.521,23.605,64.35,16.139
				c-10.597-5.583-19.818-6.402-19.91-6.41c-2.111-0.175-3.681-2.028-3.506-4.14c0.175-2.111,2.029-3.681,4.141-3.506
				c0.438,0.036,10.887,0.964,22.853,7.268c7.045,3.712,13.18,8.532,18.233,14.325c6.307,7.23,10.916,15.976,13.699,25.996
				c0.566,2.042-0.629,4.156-2.67,4.723C96.846,54.489,96.5,54.535,96.16,54.535z"/>
		</g>
		<g>
			<path fill="#126CA0" d="M79.792,55.558c-1.68,0-3.222-1.112-3.694-2.811c-2.884-10.382-8.959-18.078-18.058-22.872
				c-6.818-3.592-12.689-4.114-12.748-4.119c-2.111-0.175-3.681-2.029-3.506-4.14c0.175-2.111,2.029-3.682,4.14-3.506
				c0.303,0.025,7.504,0.664,15.69,4.978c4.826,2.542,9.029,5.846,12.495,9.818c4.321,4.954,7.477,10.938,9.38,17.788
				c0.566,2.042-0.629,4.156-2.67,4.723C80.478,55.513,80.132,55.558,79.792,55.558z"/>
		</g>
		<g>
			<path fill="#126CA0" d="M64.362,57.37c-1.681,0-3.223-1.112-3.694-2.811C57.105,41.735,44.903,40.578,44.78,40.568
				c-2.111-0.175-3.681-2.028-3.506-4.14c0.175-2.111,2.028-3.681,4.14-3.506c0.462,0.038,4.656,0.448,9.485,2.992
				c4.57,2.408,10.563,7.242,13.161,16.592c0.567,2.042-0.628,4.156-2.67,4.724C65.048,57.324,64.702,57.37,64.362,57.37z"/>
		</g>
	</g>
</g>
</svg>
