<?xml version="1.0" encoding="utf-8"?>
<!-- Generator: Adobe Illustrator 16.0.0, SVG Export Plug-In . SVG Version: 6.00 Build 0)  -->
<!DOCTYPE svg PUBLIC "-//W3C//DTD SVG 1.1//EN" "http://www.w3.org/Graphics/SVG/1.1/DTD/svg11.dtd">
<svg version="1.1" id="Layer_1" xmlns="http://www.w3.org/2000/svg" xmlns:xlink="http://www.w3.org/1999/xlink" x="0px" y="0px"
	 width="100px" height="100px" viewBox="0 0 100 100" enable-background="new 0 0 100 100" xml:space="preserve">
<g>
	<path fill="#126CA0" d="M83.757,67.453c-0.22-2.306-2.169-4.11-4.534-4.11h-0.092c-1.444,0-2.732,0.677-3.562,1.729
		c-0.035,0.043-0.066,0.088-0.1,0.133c-0.658-1.707-2.31-2.92-4.249-2.92H71.13c-1.506,0-2.838,0.734-3.667,1.861
		c-0.661-1.703-2.31-2.911-4.245-2.911h-0.092c-1.33,0-2.523,0.572-3.355,1.481v-14.6c0-2.516-2.04-4.556-4.556-4.556h-0.093
		c-2.517,0-4.556,2.04-4.556,4.556V68.8c-1.894-1.76-3.922-3.388-6.086-4.848c-2.925-1.977-6.481-1.282-7.625,1.128
		c-0.015,0.029-0.029,0.058-0.044,0.087c-1.153,2.419-0.058,5.357,2.198,6.893c2.541,1.715,4.859,3.702,6.924,5.913
		c2.821,3.021,4.741,6.739,5.915,10.704C53.791,95.243,59.865,100,67.018,100h0.308c5.355,0,10.109-2.666,12.97-6.76
		c1.693-2.413,2.729-5.326,2.846-8.483l0.632-17.124L83.757,67.453z"/>
	<path fill="#126CA0" d="M78.914,0H21.088c-5.234,0-9.48,4.242-9.48,9.479v36.232c0,5.237,4.247,9.479,9.48,9.479h22.019
		c2.729,0,4.941-2.213,4.941-4.942v-2.13c0-3.902,3.174-7.075,7.073-7.075h0.094c3.907,0,7.075,3.167,7.075,7.075v2.13
		c0,2.729,2.212,4.942,4.941,4.942h11.683c5.234,0,9.479-4.241,9.479-9.479V9.479C88.393,4.242,84.148,0,78.914,0z M34.065,28.723
		c-0.26,0-1.918-0.033-2.179-0.033v9.171h-4.033V15.096h6.342c3.87,0,5.724,2.862,5.724,6.504
		C39.919,26.316,37.122,28.723,34.065,28.723z M52.211,37.861l-0.813-5.301h-3.935l-0.781,5.301h-3.837l4.683-22.765h4.065
		l4.683,22.765H52.211z M67.398,29.906v7.956h-3.935v-7.956l-4.748-14.81h3.967l2.765,10.992h0.065l2.634-10.992h4L67.398,29.906z"
		/>
	<path fill="#126CA0" d="M34.033,18.349h-2.146v6.895h0.813c2.634,0,3.382-0.326,3.382-3.643
		C36.081,19.779,35.659,18.349,34.033,18.349z"/>
	<polygon fill="#126CA0" points="49.415,21.113 48.146,29.276 50.748,29.276 49.512,21.113 	"/>
</g>
</svg>
