<?xml version="1.0" encoding="utf-8"?>
<!-- Generator: Adobe Illustrator 16.0.0, SVG Export Plug-In . SVG Version: 6.00 Build 0)  -->
<!DOCTYPE svg PUBLIC "-//W3C//DTD SVG 1.1//EN" "http://www.w3.org/Graphics/SVG/1.1/DTD/svg11.dtd">
<svg version="1.1" id="Layer_1" xmlns="http://www.w3.org/2000/svg" xmlns:xlink="http://www.w3.org/1999/xlink" x="0px" y="0px"
	 width="100px" height="100px" viewBox="0 0 100 100" enable-background="new 0 0 100 100" xml:space="preserve">
<g>
	<g>
		<path fill="#126CA0" d="M69.462,0c-0.019,7.078-0.04,15.333-0.04,15.343c-0.003,1.294,3.937,2.352,8.8,2.363
			c4.862,0.012,8.808-1.027,8.811-2.321c0-0.009,0.019-8.265,0.034-15.343c4.744,2.96,7.896,8.23,7.881,14.233
			c-0.022,9.232-7.524,16.699-16.757,16.677s-16.699-7.525-16.678-16.758C61.527,8.192,64.704,2.937,69.462,0z"/>
		<path fill="#126CA0" d="M59.81,66.05c4.286,1.523,7.563,4.614,9.425,8.397c0.002,0.001,0.003,0.002,0.004,0.003l15.394-43.301
			c-2.028,0.91-4.275,1.418-6.643,1.413c-4.005-0.01-7.663-1.479-10.48-3.898L54.562,65.085
			C56.307,65.123,58.075,65.433,59.81,66.05z"/>
		<path fill="#126CA0" d="M58.954,67.428c-8.726-3.102-18.313,1.458-21.416,10.184c-3.102,8.726,1.457,18.313,10.183,21.415
			c8.726,3.103,18.314-1.456,21.416-10.182C72.238,80.118,67.68,70.53,58.954,67.428z M49.22,84.502
			c-0.278,0.784-1.14,1.193-1.924,0.914c-0.784-0.278-1.194-1.14-0.915-1.924l1.728-4.86c0.279-0.784,1.14-1.194,1.924-0.915
			c0.784,0.278,1.194,1.14,0.915,1.924L49.22,84.502z M53.893,86.162c-0.278,0.784-1.14,1.194-1.924,0.916
			c-0.784-0.279-1.193-1.141-0.915-1.925l1.729-4.86c0.278-0.784,1.14-1.194,1.924-0.915c0.784,0.278,1.193,1.14,0.915,1.925
			L53.893,86.162z M58.565,87.824c-0.278,0.783-1.14,1.193-1.924,0.915c-0.784-0.279-1.194-1.141-0.915-1.925l1.728-4.86
			c0.279-0.784,1.141-1.194,1.925-0.915c0.784,0.278,1.193,1.14,0.914,1.924L58.565,87.824z"/>
	</g>
	<path fill="#126CA0" d="M33.835,94.989c-0.341,0.111-0.708-0.074-0.82-0.415l-0.775-2.366c-0.111-0.34,0.074-0.707,0.416-0.819
		l10.082-3.302c0.341-0.111,0.708,0.075,0.819,0.415l0.775,2.366c0.111,0.341-0.074,0.708-0.415,0.819L33.835,94.989z"/>
	<path fill="#126CA0" d="M20.026,95.925c-0.066,0.005-0.133,0.01-0.2,0.014c-2.646,0.146-4.825-0.754-6.446-2.111
		c-1.52,1.639-3.717,2.892-6.574,3.11c-0.897,0.069-1.68-0.603-1.75-1.5c-0.068-0.897,0.603-1.681,1.5-1.75
		c2.369-0.182,3.832-1.313,4.695-2.372c-0.687-1.165-1.08-2.396-1.147-3.49c-0.144-2.33,1.222-3.478,2.648-3.586
		c0.009-0.001,0.018-0.002,0.027-0.002c1.432-0.097,2.953,0.852,3.121,3.186c0.08,1.103-0.158,2.383-0.708,3.641
		c0.917,0.874,2.363,1.737,4.45,1.62c2.274-0.119,3.76-1.384,4.618-2.427c-1.222-1.975-1.565-4.016-0.889-5.406
		c0.458-0.943,1.343-1.529,2.431-1.613c0.01-0.001,0.019-0.001,0.028-0.002c1.091-0.075,2.05,0.381,2.63,1.252
		c0.859,1.289,0.769,3.387-0.224,5.527c0.917,0.864,2.41,1.824,4.426,1.67c0.897-0.069,1.68,0.603,1.749,1.5s-0.603,1.681-1.5,1.75
		c-2.358,0.18-4.653-0.607-6.498-2.169C24.738,94.603,22.491,95.735,20.026,95.925z"/>
</g>
</svg>
