<?xml version="1.0" encoding="utf-8"?>
<!-- Generator: Adobe Illustrator 16.0.0, SVG Export Plug-In . SVG Version: 6.00 Build 0)  -->
<!DOCTYPE svg PUBLIC "-//W3C//DTD SVG 1.1//EN" "http://www.w3.org/Graphics/SVG/1.1/DTD/svg11.dtd">
<svg version="1.1" xmlns="http://www.w3.org/2000/svg" xmlns:xlink="http://www.w3.org/1999/xlink" x="0px" y="0px" width="100px"
	 height="100px" viewBox="0 0 100 100" enable-background="new 0 0 100 100" xml:space="preserve">
<g id="Layer_1">
	<g>
		<g>
			<g>
				<path fill="#FFD14A" d="M50,26.834c-12.773,0-23.166,10.393-23.166,23.166S37.227,73.166,50,73.166S73.166,62.773,73.166,50
					S62.773,26.834,50,26.834z M42.468,31.318c-1.396,1.903-2.434,4.156-3.175,6.366c-1.35-0.483-2.598-1.062-3.72-1.728
					C37.51,33.967,39.853,32.375,42.468,31.318z M33.611,38.299c1.445,0.902,3.08,1.67,4.855,2.292
					c-0.585,2.473-0.937,5.141-1.03,7.897h-7.524C30.194,44.708,31.524,41.215,33.611,38.299z M33.611,61.7
					c-2.087-2.915-3.417-6.409-3.699-10.189h7.524c0.093,2.758,0.444,5.425,1.029,7.899C36.691,60.031,35.057,60.798,33.611,61.7z
					 M35.573,64.043c1.122-0.665,2.37-1.244,3.72-1.727c0.742,2.21,1.78,4.463,3.175,6.366
					C39.853,67.624,37.51,66.033,35.573,64.043z M48.489,69.865c-3.12-1.146-5.223-5.247-6.3-8.406
					c1.976-0.471,4.099-0.76,6.3-0.851V69.865z M48.489,57.584c-2.48,0.097-4.881,0.427-7.123,0.971
					c-0.509-2.201-0.818-4.577-0.908-7.044h8.03V57.584z M48.489,48.489h-8.03c0.09-2.467,0.398-4.843,0.908-7.044
					c2.242,0.544,4.643,0.874,7.123,0.97V48.489z M48.489,39.392c-2.201-0.091-4.324-0.381-6.3-0.851
					c1.076-3.157,3.179-7.261,6.3-8.406V39.392z M66.389,38.299c2.088,2.916,3.417,6.409,3.699,10.19h-7.524
					c-0.094-2.757-0.444-5.425-1.029-7.898C63.31,39.969,64.943,39.202,66.389,38.299z M64.427,35.957
					c-1.121,0.666-2.37,1.245-3.719,1.728c-0.742-2.21-1.78-4.463-3.177-6.366C60.146,32.375,62.49,33.967,64.427,35.957z
					 M51.511,30.135c3.12,1.145,5.224,5.247,6.3,8.406c-1.977,0.47-4.099,0.76-6.3,0.851V30.135L51.511,30.135z M51.511,42.416
					c2.479-0.096,4.881-0.426,7.124-0.97c0.508,2.201,0.816,4.578,0.906,7.044h-8.03V42.416z M51.511,51.501h8.03
					c-0.09,2.466-0.398,4.853-0.906,7.054c-2.243-0.544-4.645-0.874-7.124-0.971V51.501z M51.511,69.865v-9.257
					c2.201,0.091,4.323,0.38,6.3,0.851C56.735,64.616,54.632,68.72,51.511,69.865z M57.531,68.683
					c1.396-1.903,2.435-4.155,3.177-6.366c1.349,0.482,2.598,1.062,3.719,1.727C62.49,66.033,60.146,67.624,57.531,68.683z
					 M66.389,61.7c-1.445-0.901-3.079-1.669-4.854-2.29c0.584-2.474,0.936-5.151,1.029-7.909h7.524
					C69.806,55.282,68.477,58.785,66.389,61.7z"/>
			</g>
		</g>
		<g>
			<path fill="#FFD14A" d="M80.365,79.116l2.81,2.673c0.946-0.992,1.85-2.039,2.699-3.115l-3.046-2.402
				C82.053,77.259,81.223,78.215,80.365,79.116z"/>
			<path fill="#FFD14A" d="M55.649,91.509l0.449,3.854c1.354-0.158,2.719-0.384,4.069-0.681l-0.81-3.792
				C58.13,91.158,56.881,91.366,55.649,91.509z"/>
			<path fill="#FFD14A" d="M64.778,89.342l1.323,3.654c1.282-0.466,2.561-1,3.803-1.587l-1.658-3.504
				C67.115,88.429,65.945,88.919,64.778,89.342z"/>
			<path fill="#FFD14A" d="M73.162,85.133l2.125,3.247c1.146-0.746,2.26-1.559,3.337-2.41l-2.417-3.03
				C75.225,83.712,74.198,84.453,73.162,85.133z"/>
			<path fill="#FFD14A" d="M89.786,63.021l3.715,1.139c0.401-1.303,0.744-2.647,1.023-3.991l-3.801-0.788
				C90.468,60.606,90.151,61.833,89.786,63.021z"/>
			<path fill="#FFD14A" d="M86.011,71.613l3.346,1.96c0.691-1.181,1.336-2.405,1.914-3.647l-3.514-1.643
				C87.228,69.415,86.64,70.536,86.011,71.613z"/>
			<path fill="#FFD14A" d="M91.557,50.071c0.03,1.235,0.005,2.488-0.075,3.72l3.871,0.256c0.086-1.359,0.115-2.719,0.082-4.076
				l-0.001-0.04L91.557,50.071z"/>
			<path fill="#FFD14A" d="M91.031,44.414l3.831-0.629c-0.229-1.352-0.507-2.705-0.854-4.034l-3.753,0.981
				C90.568,41.946,90.828,43.185,91.031,44.414z"/>
			<path fill="#FFD14A" d="M26.588,88.506c1.149,0.748,2.347,1.447,3.559,2.084l1.802-3.434c-1.108-0.585-2.2-1.225-3.249-1.902
				L26.588,88.506z"/>
			<path fill="#FFD14A" d="M45.825,95.391c1.361,0.151,2.744,0.242,4.11,0.271l0.076-3.883c-1.248-0.024-2.511-0.108-3.754-0.247
				L45.825,95.391z"/>
			<path fill="#FFD14A" d="M35.805,93.073c1.299,0.465,2.627,0.871,3.943,1.207l0.961-3.76c-1.202-0.306-2.413-0.676-3.6-1.101
				L35.805,93.073z"/>
			<path fill="#FFD14A" d="M19.526,20.777l-2.792-2.654c-0.94,0.987-1.835,2.025-2.679,3.094l3.024,2.387
				C17.849,22.624,18.674,21.673,19.526,20.777z"/>
			<path fill="#FFD14A" d="M44.072,8.47l-0.446-3.828c-1.345,0.157-2.701,0.381-4.042,0.676l0.804,3.768
				C41.61,8.816,42.849,8.612,44.072,8.47z"/>
			<path fill="#FFD14A" d="M35.006,10.622l-1.315-3.629c-1.273,0.463-2.542,0.992-3.776,1.575l1.645,3.481
				C32.685,11.529,33.846,11.043,35.006,10.622z"/>
			<path fill="#FFD14A" d="M26.682,14.801l-2.112-3.225c-1.138,0.742-2.246,1.548-3.316,2.395l2.402,3.011
				C24.632,16.213,25.649,15.477,26.682,14.801z"/>
			<path fill="#FFD14A" d="M10.168,36.763l-3.689-1.131c-0.398,1.293-0.739,2.629-1.018,3.966l3.773,0.781
				C9.493,39.162,9.806,37.945,10.168,36.763z"/>
			<path fill="#FFD14A" d="M13.918,28.23l-3.323-1.947c-0.687,1.173-1.327,2.389-1.901,3.622l3.491,1.632
				C12.709,30.414,13.292,29.299,13.918,28.23z"/>
			<path fill="#FFD14A" d="M8.409,49.625c-0.03-1.226-0.004-2.47,0.077-3.695L4.64,45.677c-0.087,1.351-0.115,2.702-0.082,4.049
				l0.001,0.037L8.409,49.625z"/>
			<path fill="#FFD14A" d="M8.932,55.244l-3.805,0.625c0.226,1.341,0.504,2.685,0.851,4.006l3.727-0.974
				C9.393,57.694,9.134,56.465,8.932,55.244z"/>
			<path fill="#FFD14A" d="M72.935,11.452c-1.141-0.744-2.329-1.438-3.532-2.07l-1.789,3.412c1.099,0.579,2.184,1.214,3.225,1.886
				L72.935,11.452z"/>
			<path fill="#FFD14A" d="M53.83,4.614c-1.352-0.15-2.725-0.241-4.082-0.268l-0.077,3.855c1.24,0.024,2.495,0.107,3.73,0.247
				L53.83,4.614z"/>
			<path fill="#FFD14A" d="M63.782,6.916c-1.29-0.46-2.61-0.865-3.917-1.199L58.91,9.453c1.193,0.303,2.396,0.671,3.576,1.092
				L63.782,6.916z"/>
		</g>
		<g>
			<path fill="#FFD14A" d="M19.01,63.314H6.077C2.726,63.314,0,66.041,0,69.391v24.532C0,97.273,2.726,100,6.077,100H19.01
				c3.351,0,6.077-2.727,6.077-6.077V69.391C25.086,66.041,22.36,63.314,19.01,63.314z M6.077,66.787H19.01
				c1.436,0,2.604,1.168,2.604,2.604v0.672H3.472v-0.672C3.472,67.955,4.641,66.787,6.077,66.787z M21.614,73.313v16.75H3.472
				v-16.75H21.614z M19.01,96.527H6.077c-1.436,0-2.604-1.168-2.604-2.604v-0.61h18.142v0.61
				C21.614,95.359,20.446,96.527,19.01,96.527z"/>
		</g>
		<g>
			<path fill="#FFD14A" d="M93.924,0H80.99c-3.351,0-6.076,2.727-6.076,6.076v24.532c0,3.351,2.726,6.077,6.076,6.077h12.934
				c3.35,0,6.076-2.727,6.076-6.077V6.076C100,2.727,97.273,0,93.924,0z M80.99,3.473h12.934c1.436,0,2.604,1.168,2.604,2.604v0.672
				H78.386V6.076C78.386,4.641,79.555,3.473,80.99,3.473z M96.527,9.998v16.75H78.386V9.998H96.527z M93.924,33.213H80.99
				c-1.436,0-2.604-1.168-2.604-2.604v-0.61h18.142v0.61C96.527,32.045,95.359,33.213,93.924,33.213z"/>
		</g>
	</g>
</g>
<g id="Layer_2">
</g>
</svg>
