<?xml version="1.0" encoding="utf-8"?>
<!-- Generator: Adobe Illustrator 16.0.0, SVG Export Plug-In . SVG Version: 6.00 Build 0)  -->
<!DOCTYPE svg PUBLIC "-//W3C//DTD SVG 1.1//EN" "http://www.w3.org/Graphics/SVG/1.1/DTD/svg11.dtd">
<svg version="1.1" id="Layer_1" xmlns="http://www.w3.org/2000/svg" xmlns:xlink="http://www.w3.org/1999/xlink" x="0px" y="0px"
	 width="100px" height="100px" viewBox="0 0 100 100" enable-background="new 0 0 100 100" xml:space="preserve">
<g>
	<path fill="#FFD14A" d="M50,0C22.385,0,0,22.385,0,50s22.385,50,50,50s50-22.385,50-50S77.615,0,50,0z M50,93.75
		C25.837,93.75,6.25,74.163,6.25,50S25.837,6.25,50,6.25S93.75,25.837,93.75,50S74.163,93.75,50,93.75z"/>
	<path fill="#FFD14A" d="M39.925,72.496c-0.009,0.392,0.119,0.928,0.581,1.249c0.295,0.208,0.646,0.304,0.971,0.304h0.015
		c0.748-0.014,1.374-0.374,1.973-0.792c0.597-0.426,1.154-0.946,1.616-1.411c0.031-0.027,0.056-0.062,0.079-0.094
		c2.379-1.438,6.601-4.376,11.467-8.73l-3.738-3.75c-4.486,4.987-7.459,9.31-8.857,11.646c-0.421,0.419-0.911,0.867-1.378,1.2
		c-0.485,0.355-0.957,0.544-1.161,0.531c-0.077-0.003-0.116-0.013-0.157-0.036c-0.005-0.021-0.011-0.061-0.011-0.116
		c-0.004-0.235,0.105-0.692,0.242-1.173c0.13-0.488,0.286-0.998,0.291-1.544c0.008-0.39-0.117-0.926-0.581-1.247
		c-0.228-0.164-0.511-0.237-0.759-0.236c-0.432,0.008-0.766,0.167-1.081,0.338c-0.465,0.267-0.898,0.608-1.284,0.866
		c-0.289,0.208-0.564,0.336-0.687,0.371c-0.002-0.02-0.003-0.046-0.003-0.074c-0.005-0.234,0.106-0.691,0.241-1.173
		c0.13-0.487,0.285-0.998,0.291-1.541c0.009-0.393-0.117-0.928-0.582-1.25c-0.362-0.253-0.796-0.369-1.23-0.369
		c-1.38,0.021-2.837,1.038-3.802,2.87c-0.179,0.344-0.046,0.766,0.297,0.945c0.343,0.178,0.765,0.046,0.944-0.298
		c0.773-1.508,1.938-2.138,2.561-2.117c0.179,0.003,0.306,0.041,0.402,0.1c0.004,0.022,0.01,0.063,0.01,0.119
		c0.006,0.236-0.106,0.691-0.241,1.172c-0.13,0.487-0.286,0.998-0.291,1.542c-0.008,0.391,0.119,0.928,0.582,1.251
		c0.23,0.162,0.51,0.234,0.757,0.233c0.433-0.007,0.768-0.166,1.081-0.339c0.466-0.263,0.899-0.605,1.284-0.863
		c0.29-0.208,0.564-0.337,0.686-0.372c0.002,0.02,0.004,0.046,0.004,0.072c0.005,0.236-0.105,0.692-0.241,1.174
		C40.085,71.44,39.929,71.952,39.925,72.496z M56.543,44.555H36.666v1.96h19.877V44.555z M36.665,51.414h17.079v-1.959H36.665
		V51.414z M63.146,74.934H30.948V40.482l0.409-0.408h8.178v-8.138l0.405-0.402h23.207v14.385c0.656-0.645,1.313-1.293,1.963-1.94
		V30.555c0-0.258-0.104-0.511-0.29-0.693c-0.18-0.183-0.434-0.287-0.691-0.287H39.535c-0.258,0-0.51,0.104-0.692,0.286l-9.566,9.52
		c-0.185,0.185-0.288,0.433-0.288,0.694v35.838c0,0.263,0.102,0.51,0.287,0.693c0.185,0.188,0.431,0.289,0.693,0.289h34.159
		c0.261,0,0.506-0.102,0.691-0.289c0.186-0.184,0.29-0.431,0.29-0.693V57.499c-0.666,0.664-1.317,1.313-1.963,1.943V74.934z
		 M70.326,45.581c-0.773-0.776-1.9-0.913-2.561-0.333c-0.4-0.192-0.701-0.218-0.852-0.067c-4.352,4.344-8.954,8.718-12.391,12.46
		l3.74,3.746c3.749-3.425,8.137-8.016,12.49-12.356c0.155-0.158,0.124-0.479-0.092-0.906C71.232,47.464,71.093,46.351,70.326,45.581
		z M68.229,49.571c-3.536,3.104-4.811,4.154-7.123,6.191c-0.678,0.599-0.691,0.4-1.035,0.085c-0.313-0.344-0.512-0.36,0.09-1.038
		c2.039-2.306,3.094-3.576,6.208-7.103c0.854-0.968,1.269-1.233,1.687-1.056c0.226,0.096,1.137,1.009,1.231,1.236
		C69.463,48.306,69.197,48.718,68.229,49.571z"/>
	<polygon fill="#FFD14A" points="14.217,81.717 18.283,85.782 24.759,79.307 24.759,71.175 	"/>
	<polygon fill="#FFD14A" points="85.783,18.283 81.717,14.217 69.241,26.692 69.241,34.825 	"/>
</g>
</svg>
