<?xml version="1.0" encoding="utf-8"?>
<!-- Generator: Adobe Illustrator 16.0.0, SVG Export Plug-In . SVG Version: 6.00 Build 0)  -->
<!DOCTYPE svg PUBLIC "-//W3C//DTD SVG 1.1//EN" "http://www.w3.org/Graphics/SVG/1.1/DTD/svg11.dtd">
<svg version="1.1" id="Layer_1" xmlns="http://www.w3.org/2000/svg" xmlns:xlink="http://www.w3.org/1999/xlink" x="0px" y="0px"
	 width="100px" height="100px" viewBox="0 0 100 100" enable-background="new 0 0 100 100" xml:space="preserve">
<path fill="#126CA0" d="M42.93,46.571c1.667,0,3.098,0.595,4.287,1.785C48.406,49.543,49,50.972,49,52.644V93.93
	c0,1.669-0.594,3.099-1.784,4.286C46.027,99.405,44.597,100,42.93,100h-4.857c-1.67,0-3.1-0.595-4.289-1.784
	C32.594,97.028,32,95.599,32,93.93V52.644c0-1.671,0.594-3.101,1.784-4.288c1.189-1.19,2.618-1.785,4.289-1.785H42.93z
	 M95.144,52.758c1.467,0.859,2.643,2.036,3.528,3.527c0.886,1.493,1.328,3.113,1.328,4.858v29.143c0,2.682-0.948,4.972-2.847,6.867
	C95.258,99.052,92.968,100,90.286,100H57.5c-1.669,0-3.099-0.595-4.289-1.784c-1.188-1.188-1.781-2.617-1.781-4.286V35.643
	c0-1.012,0.353-1.872,1.063-2.581C53.2,32.354,54.06,32,55.07,32h25.5c1.013,0,2.125,0.253,3.341,0.759
	c1.214,0.506,2.175,1.113,2.883,1.821l5.769,5.767c0.708,0.709,1.314,1.671,1.82,2.885c0.507,1.214,0.761,2.327,0.761,3.339V52.758z
	 M67.214,90.286V85.43c0-0.354-0.112-0.646-0.342-0.875c-0.227-0.227-0.52-0.341-0.872-0.341h-4.856
	c-0.354,0-0.646,0.114-0.874,0.341c-0.227,0.229-0.34,0.521-0.34,0.875v4.856c0,0.354,0.113,0.644,0.34,0.873
	c0.228,0.227,0.52,0.341,0.874,0.341H66c0.353,0,0.646-0.114,0.872-0.341C67.102,90.93,67.214,90.64,67.214,90.286z M67.214,80.57
	v-4.856c0-0.354-0.112-0.644-0.342-0.873C66.646,74.614,66.353,74.5,66,74.5h-4.856c-0.354,0-0.646,0.114-0.874,0.341
	c-0.227,0.229-0.34,0.52-0.34,0.873v4.856c0,0.354,0.113,0.646,0.34,0.875c0.228,0.227,0.52,0.341,0.874,0.341H66
	c0.353,0,0.646-0.114,0.872-0.341C67.102,81.216,67.214,80.925,67.214,80.57z M67.214,70.856V66c0-0.353-0.112-0.646-0.342-0.872
	c-0.227-0.229-0.52-0.342-0.872-0.342h-4.856c-0.354,0-0.646,0.113-0.874,0.342c-0.227,0.227-0.34,0.52-0.34,0.872v4.856
	c0,0.354,0.113,0.646,0.34,0.873c0.228,0.229,0.52,0.341,0.874,0.341H66c0.353,0,0.646-0.112,0.872-0.341
	C67.102,71.503,67.214,71.211,67.214,70.856z M76.93,90.286V85.43c0-0.354-0.114-0.646-0.344-0.875
	c-0.227-0.227-0.517-0.341-0.872-0.341h-4.857c-0.354,0-0.646,0.114-0.872,0.341c-0.227,0.229-0.341,0.521-0.341,0.875v4.856
	c0,0.354,0.114,0.644,0.341,0.873c0.227,0.227,0.518,0.341,0.872,0.341h4.857c0.355,0,0.646-0.114,0.872-0.341
	C76.815,90.93,76.93,90.64,76.93,90.286z M76.93,80.57v-4.856c0-0.354-0.114-0.644-0.344-0.873
	c-0.227-0.227-0.517-0.341-0.872-0.341h-4.857c-0.354,0-0.646,0.114-0.872,0.341c-0.227,0.229-0.341,0.52-0.341,0.873v4.856
	c0,0.354,0.114,0.646,0.341,0.875c0.227,0.227,0.518,0.341,0.872,0.341h4.857c0.355,0,0.646-0.114,0.872-0.341
	C76.815,81.216,76.93,80.925,76.93,80.57z M76.93,70.856V66c0-0.353-0.114-0.646-0.344-0.872c-0.227-0.229-0.517-0.342-0.872-0.342
	h-4.857c-0.354,0-0.646,0.113-0.872,0.342c-0.227,0.227-0.341,0.52-0.341,0.872v4.856c0,0.354,0.114,0.646,0.341,0.873
	c0.227,0.229,0.518,0.341,0.872,0.341h4.857c0.355,0,0.646-0.112,0.872-0.341C76.815,71.503,76.93,71.211,76.93,70.856z
	 M86.644,90.286V85.43c0-0.354-0.115-0.646-0.342-0.875c-0.229-0.227-0.52-0.341-0.872-0.341H80.57
	c-0.353,0-0.644,0.114-0.872,0.341c-0.227,0.229-0.342,0.521-0.342,0.875v4.856c0,0.354,0.115,0.644,0.342,0.873
	c0.229,0.227,0.52,0.341,0.872,0.341h4.859c0.353,0,0.644-0.114,0.872-0.341C86.528,90.93,86.644,90.64,86.644,90.286z
	 M86.644,80.57v-4.856c0-0.354-0.115-0.644-0.342-0.873c-0.229-0.227-0.52-0.341-0.872-0.341H80.57
	c-0.353,0-0.644,0.114-0.872,0.341c-0.227,0.229-0.342,0.52-0.342,0.873v4.856c0,0.354,0.115,0.646,0.342,0.875
	c0.229,0.227,0.52,0.341,0.872,0.341h4.859c0.353,0,0.644-0.114,0.872-0.341C86.528,81.216,86.644,80.925,86.644,80.57z
	 M86.644,70.856V66c0-0.353-0.115-0.646-0.342-0.872c-0.229-0.229-0.52-0.342-0.872-0.342H80.57c-0.353,0-0.644,0.113-0.872,0.342
	c-0.227,0.227-0.342,0.52-0.342,0.872v4.856c0,0.354,0.115,0.646,0.342,0.873c0.229,0.229,0.52,0.341,0.872,0.341h4.859
	c0.353,0,0.644-0.112,0.872-0.341C86.528,71.503,86.644,71.211,86.644,70.856z M90.286,56.285v-9.714h-6.072
	c-1.012,0-1.871-0.353-2.581-1.063c-0.708-0.708-1.063-1.567-1.063-2.579v-6.073H56.285v19.428H90.286z"/>
<path fill="#126CA0" d="M40,10.135v17.723c0,0.982-0.35,1.822-1.049,2.523c-0.699,0.699-1.541,1.049-2.523,1.049H3.572
	c-0.983,0-1.824-0.35-2.523-1.049C0.35,29.68,0,28.84,0,27.857V10.135c0.654,0.729,1.406,1.377,2.255,1.941
	c5.387,3.66,9.083,6.229,11.094,7.701c0.848,0.625,1.536,1.113,2.063,1.463c0.529,0.35,1.232,0.705,2.109,1.07
	c0.878,0.365,1.697,0.547,2.456,0.547h0.045c0.758,0,1.576-0.182,2.455-0.547c0.877-0.365,1.58-0.721,2.109-1.07
	c0.527-0.35,1.215-0.838,2.064-1.463c2.529-1.83,6.234-4.396,11.115-7.701C38.615,11.496,39.359,10.85,40,10.135z M40,3.572
	c0,1.176-0.365,2.299-1.094,3.371c-0.729,1.07-1.637,1.986-2.723,2.744c-5.596,3.885-9.078,6.303-10.447,7.256
	c-0.148,0.104-0.465,0.33-0.949,0.68c-0.482,0.35-0.885,0.633-1.205,0.848c-0.32,0.217-0.707,0.459-1.16,0.727
	s-0.881,0.469-1.283,0.602C20.736,19.934,20.363,20,20.023,20h-0.045c-0.343,0-0.714-0.066-1.117-0.201
	c-0.402-0.133-0.829-0.334-1.283-0.602s-0.841-0.51-1.162-0.727c-0.319-0.215-0.721-0.498-1.204-0.848
	c-0.484-0.35-0.8-0.576-0.949-0.68c-1.355-0.953-3.304-2.311-5.848-4.074c-2.546-1.764-4.07-2.824-4.577-3.182
	c-0.922-0.625-1.793-1.484-2.61-2.578C0.409,6.016,0,5,0,4.063c0-1.16,0.309-2.127,0.927-2.9C1.544,0.387,2.426,0,3.572,0h32.856
	c0.969,0,1.805,0.35,2.512,1.049C39.646,1.75,40,2.59,40,3.572z"/>
<g>
	<g>
		<path fill="#156DA0" d="M9.11,42.442c-0.306-0.092-0.634,0.05-0.772,0.337c-1.867,3.898-2.737,7.607-2.59,11.032
			c0.226,5.25,2.883,9.763,7.898,13.411c0.313,0.228,0.368,0.777,0.125,1.252l-1.131,2.205c-0.221,0.431-0.146,0.969,0.217,1.289
			c0.276,0.241,0.644,0.316,0.985,0.214l11.478-3.469c0.269-0.083,0.497-0.271,0.624-0.52c0.127-0.249,0.148-0.544,0.058-0.81
			l-3.888-11.342c-0.087-0.257-0.266-0.464-0.504-0.587l0,0c-0.236-0.12-0.508-0.147-0.764-0.073
			c-0.277,0.079-0.5,0.265-0.633,0.524l-1.718,3.353c-0.144,0.28-0.371,0.499-0.625,0.598c-0.195,0.079-0.388,0.079-0.541,0
			c-0.011-0.005-0.025-0.013-0.035-0.019c-3.337-2.058-8.712-6.94-7.724-16.712C9.603,42.818,9.407,42.532,9.11,42.442L9.11,42.442z
			"/>
	</g>
</g>
</svg>
