<?xml version="1.0" encoding="utf-8"?>
<!-- Generator: Adobe Illustrator 16.0.0, SVG Export Plug-In . SVG Version: 6.00 Build 0)  -->
<!DOCTYPE svg PUBLIC "-//W3C//DTD SVG 1.1//EN" "http://www.w3.org/Graphics/SVG/1.1/DTD/svg11.dtd">
<svg version="1.1" id="Layer_1" xmlns="http://www.w3.org/2000/svg" xmlns:xlink="http://www.w3.org/1999/xlink" x="0px" y="0px"
	 width="100px" height="100px" viewBox="0 0 100 100" enable-background="new 0 0 100 100" xml:space="preserve">
<g>
	<path fill="#126CA0" d="M36.788,40.405c-4.442,3.359-8.741,5.974-12.739,7.995C10.291,41.715,0.245,41.697,0.12,41.697
		l-0.063-6.549L0,28.6C0.792,28.588,16.874,28.611,36.788,40.405z"/>
	<path fill="#126CA0" d="M75.632,83.173l0.342-7.243c-8.645-1.777-20.678-6.06-34.18-16.089c2.494-1.617,5.04-3.422,7.614-5.433
		l0.148-0.113c1.15-0.895,2.329-1.76,3.542-2.586c5.16,3.338,10.707,6.042,16.51,8.099l6.998,2.477l0.303-6.509L100,70.582
		L75.632,83.173z"/>
	<path fill="#126CA0" d="M99.998,29.422L76.91,44.228l-0.304-6.513l-6.997,2.48c-7.845,2.781-15.232,6.74-21.804,11.851
		c-0.051,0.039-0.102,0.079-0.153,0.119C23.042,71.377,0.929,71.414,0.001,71.399l0.058-6.549l0,0l0,0l0.058-6.549
		c0.176,0.002,18.425-0.027,39.475-16.461c14.395-11.238,27.27-15.896,36.378-17.771l-0.337-7.243L99.998,29.422z"/>
</g>
</svg>
