<?xml version="1.0" encoding="utf-8"?>
<!-- Generator: Adobe Illustrator 16.0.0, SVG Export Plug-In . SVG Version: 6.00 Build 0)  -->
<!DOCTYPE svg PUBLIC "-//W3C//DTD SVG 1.1//EN" "http://www.w3.org/Graphics/SVG/1.1/DTD/svg11.dtd">
<svg version="1.1" id="Layer_1" xmlns="http://www.w3.org/2000/svg" xmlns:xlink="http://www.w3.org/1999/xlink" x="0px" y="0px"
	 width="100px" height="100px" viewBox="0 0 100 100" enable-background="new 0 0 100 100" xml:space="preserve">
<g>
	<path fill="#126CA0" d="M70.703,0v5.859h23.438v23.438H100V0H70.703z"/>
	<path fill="#126CA0" d="M94.141,94.141H70.703V100H100V70.703h-5.859V94.141z"/>
	<path fill="#126CA0" d="M5.859,70.703H0V100h29.297v-5.859H5.859V70.703z"/>
	<path fill="#126CA0" d="M5.859,5.859h23.438V0H0v29.297h5.859V5.859z"/>
	<path fill="#126CA0" d="M82.078,52.93h6.008V47.07h-6.008C80.679,31.637,68.363,19.321,52.93,17.922v-6.008H47.07v6.008
		C31.637,19.321,19.321,31.637,17.922,47.07h-6.008v5.859h6.008c1.399,15.434,13.714,27.749,29.148,29.148v6.008h5.859v-6.008
		C68.363,80.679,80.679,68.363,82.078,52.93z M52.93,76.071v-5.859c8.947-1.297,15.985-8.335,17.282-17.282h5.859
		C74.702,65.103,65.103,74.702,52.93,76.071z M50,35.352c8.076,0,14.648,6.572,14.648,14.648c0,8.076-6.572,14.648-14.648,14.648
		c-8.077,0-14.648-6.572-14.648-14.648C35.352,41.923,41.923,35.352,50,35.352z M76.071,47.07h-5.859
		c-1.297-8.947-8.335-15.985-17.282-17.282v-5.859C65.103,25.298,74.702,34.897,76.071,47.07z M47.07,23.929v5.859
		c-8.947,1.297-15.985,8.335-17.282,17.282h-5.859C25.298,34.897,34.897,25.298,47.07,23.929z M23.929,52.93h5.859
		c1.297,8.947,8.335,15.985,17.282,17.282v5.859C34.897,74.702,25.298,65.103,23.929,52.93z"/>
	<path fill="#126CA0" d="M47.07,47.07h5.859v5.859H47.07V47.07z"/>
</g>
</svg>
