<?xml version="1.0" encoding="utf-8"?>
<!-- Generator: Adobe Illustrator 16.0.0, SVG Export Plug-In . SVG Version: 6.00 Build 0)  -->
<!DOCTYPE svg PUBLIC "-//W3C//DTD SVG 1.1//EN" "http://www.w3.org/Graphics/SVG/1.1/DTD/svg11.dtd">
<svg version="1.1" id="Layer_1" xmlns="http://www.w3.org/2000/svg" xmlns:xlink="http://www.w3.org/1999/xlink" x="0px" y="0px"
	 width="100px" height="100px" viewBox="0 0 100 100" enable-background="new 0 0 100 100" xml:space="preserve">
<g>
	<g>
		<g>
			<path fill="#126CA0" d="M89.325,79.694c1.071-1.481,1.706-3.299,1.706-5.263V62.695c0-1.078-0.875-1.953-1.953-1.953H80.35
				c-4.035,0-7.318,3.283-7.318,7.318v6.371c0,1.963,0.633,3.779,1.704,5.26c-1.335,0.217-2.62,0.645-3.817,1.271
				c-2.715-4.049-7.16-6.842-12.27-7.313c-0.02-0.006-0.04-0.01-0.061-0.015c1.828-2.041,2.943-4.734,2.943-7.684V50
				c0-1.079-0.875-1.953-1.953-1.953H47.714c-5.098,0-9.245,4.146-9.245,9.244v8.66c0,2.949,1.114,5.643,2.942,7.684
				c-0.02,0.004-0.041,0.009-0.061,0.014c-5.109,0.472-9.556,3.265-12.269,7.314c-1.198-0.626-2.483-1.055-3.818-1.271
				c1.071-1.481,1.705-3.298,1.705-5.261V62.695c0-1.078-0.875-1.953-1.953-1.953h-8.729c-4.035,0-7.318,3.283-7.318,7.318v6.371
				c0,1.964,0.634,3.781,1.706,5.263C4.629,80.683,0,85.94,0,92.261v5.786C0,99.125,0.875,100,1.953,100h96.094
				c1.078,0,1.953-0.875,1.953-1.953v-5.786C100,85.94,95.371,80.683,89.325,79.694z M12.875,68.061c0-1.882,1.53-3.412,3.412-3.412
				h6.776v2.379c0,1.166-0.949,2.115-2.115,2.115h-8.072V68.061z M12.875,73.049h8.072c0.744,0,1.457-0.137,2.115-0.385v1.768
				c0,2.809-2.285,5.094-5.094,5.094s-5.094-2.285-5.094-5.094V73.049z M19.228,83.432l-1.259,1.26l-1.259-1.26H19.228z
				 M26.28,90.183v5.911H3.906v-3.833c0-4.381,3.208-8.024,7.397-8.711l5.285,5.284c0.366,0.366,0.863,0.572,1.381,0.572
				s1.015-0.206,1.381-0.572l5.286-5.286c0.934,0.151,1.832,0.453,2.668,0.894C26.642,86.231,26.28,88.166,26.28,90.183z M50,73.576
				c-4.204,0-7.624-3.421-7.624-7.625v-2.582h11.673c1.294,0,2.513-0.33,3.576-0.911v3.493C57.625,70.155,54.204,73.576,50,73.576z
				 M53.404,77.481L50,80.887l-3.405-3.405H53.404z M42.375,57.291L42.375,57.291c0-2.943,2.395-5.338,5.338-5.338h9.911v3.935
				c0,1.972-1.605,3.576-3.576,3.576H42.375V57.291z M69.814,96.094h-3.799H33.984h-3.798v-3.906h12.718
				c1.079,0,1.953-0.875,1.953-1.953s-0.875-1.953-1.953-1.953H30.329c0.837-5.551,5.28-9.933,10.859-10.683l7.431,7.431
				C49,85.411,49.5,85.602,50,85.602s1-0.19,1.381-0.572l7.432-7.431c6.201,0.833,11.002,6.157,11.002,12.584V96.094z
				 M76.938,68.061c0-1.882,1.53-3.412,3.412-3.412h6.775v2.379c0,1.166-0.949,2.115-2.115,2.115h-8.072V68.061z M76.938,73.049
				h8.072c0.744,0,1.457-0.137,2.115-0.385v1.768c0,2.809-2.285,5.094-5.094,5.094s-5.094-2.285-5.094-5.094V73.049z M83.291,83.432
				l-1.26,1.26l-1.26-1.26H83.291z M73.721,96.094v-5.911c0-2.018-0.363-3.952-1.025-5.742c0.837-0.44,1.734-0.741,2.668-0.894
				l5.287,5.287c0.366,0.366,0.863,0.572,1.381,0.572s1.015-0.206,1.381-0.572l5.284-5.284c4.189,0.687,7.397,4.33,7.397,8.711
				v3.833H73.721z"/>
		</g>
	</g>
	<g>
		<g>
			<path fill="#126CA0" d="M59.626,12.761c-0.763-0.763-1.999-0.763-2.763,0l-9.584,9.584l-4.143-4.144
				c-0.763-0.763-1.999-0.763-2.762,0c-0.763,0.763-0.763,2,0,2.762l5.524,5.524c0.366,0.366,0.863,0.572,1.381,0.572
				c0.518,0,1.015-0.206,1.381-0.572l10.965-10.965C60.389,14.761,60.389,13.524,59.626,12.761z"/>
		</g>
	</g>
	<g>
		<g>
			<path fill="#126CA0" d="M57.986,1.694c-0.985-0.439-2.141,0.003-2.58,0.988c-0.439,0.985,0.004,2.14,0.988,2.579
				c5.664,2.526,9.324,8.164,9.324,14.364c0,8.667-7.052,15.719-15.719,15.719s-15.719-7.052-15.719-15.719
				c0-6.167,3.634-11.794,9.257-14.333c0.983-0.444,1.42-1.601,0.976-2.584c-0.444-0.983-1.602-1.42-2.583-0.976
				c-7.019,3.17-11.555,10.194-11.555,17.894c0,10.821,8.803,19.625,19.625,19.625s19.625-8.804,19.625-19.625
				C69.625,11.885,65.057,4.847,57.986,1.694z"/>
		</g>
	</g>
	<g>
		<g>
			<path fill="#126CA0" d="M50.07,0H50c-1.079,0-1.953,0.875-1.953,1.953S48.921,3.906,50,3.906h0.052c0.003,0,0.006,0,0.009,0
				c1.074,0,1.948-0.868,1.953-1.944C52.02,0.884,51.148,0.005,50.07,0z"/>
		</g>
	</g>
	<g>
		<g>
			<path fill="#126CA0" d="M51.381,88.854c-0.363-0.363-0.867-0.572-1.381-0.572s-1.018,0.209-1.381,0.572s-0.572,0.867-0.572,1.381
				s0.209,1.018,0.572,1.381s0.867,0.572,1.381,0.572s1.018-0.209,1.381-0.572s0.572-0.867,0.572-1.381S51.744,89.217,51.381,88.854
				z"/>
		</g>
	</g>
</g>
</svg>
