<?xml version="1.0" encoding="utf-8"?>
<!-- Generator: Adobe Illustrator 16.0.0, SVG Export Plug-In . SVG Version: 6.00 Build 0)  -->
<!DOCTYPE svg PUBLIC "-//W3C//DTD SVG 1.1//EN" "http://www.w3.org/Graphics/SVG/1.1/DTD/svg11.dtd">
<svg version="1.1" id="Layer_1" xmlns="http://www.w3.org/2000/svg" xmlns:xlink="http://www.w3.org/1999/xlink" x="0px" y="0px"
	 width="100px" height="100px" viewBox="0 0 100 100" enable-background="new 0 0 100 100" xml:space="preserve">
<g>
	<path fill="#126CA0" d="M39.925,77.101c-1.604-5.432-6.629-9.397-12.582-9.397H12.657c-5.952,0-10.979,3.966-12.582,9.397
		c-0.345,1.17,0.545,2.339,1.763,2.339h6.475c1.012,0,1.833-0.82,1.833-1.834v-1.351c0-1.788,1.45-3.237,3.238-3.237h13.23
		c1.789,0,3.238,1.449,3.238,3.237v1.351c0,1.014,0.82,1.834,1.833,1.834h6.475C39.379,79.439,40.27,78.271,39.925,77.101z"/>
	<path fill="#126CA0" d="M32.211,82.571c-0.251-0.486-0.753-0.788-1.298-0.788l0,0c-2.357,0-4.267-1.911-4.267-4.267l0,0
		c0-0.987-0.8-1.788-1.787-1.788h-9.719c-0.987,0-1.788,0.801-1.788,1.788l0,0c0,2.355-1.91,4.267-4.266,4.267l0,0
		c-0.546,0-1.047,0.302-1.299,0.788l-5.022,9.653c-0.364,0.698-0.553,1.473-0.553,2.261v4.384c0,0.625,0.506,1.131,1.131,1.131
		h33.313c0.624,0,1.13-0.506,1.13-1.131v-4.384c0-0.788-0.19-1.563-0.553-2.261L32.211,82.571z M20,94.326
		c-3.569,0-6.462-2.893-6.462-6.462s2.893-6.461,6.462-6.461c3.568,0,6.461,2.892,6.461,6.461S23.568,94.326,20,94.326z"/>
	<circle fill="#126CA0" cx="20" cy="87.864" r="3.595"/>
</g>
<g>
	<path fill="#126CA0" d="M99.925,77.101c-1.604-5.432-6.629-9.397-12.582-9.397H72.657c-5.952,0-10.979,3.966-12.582,9.397
		c-0.345,1.17,0.545,2.339,1.763,2.339h6.476c1.012,0,1.833-0.82,1.833-1.834v-1.351c0-1.788,1.45-3.237,3.238-3.237h13.23
		c1.789,0,3.238,1.449,3.238,3.237v1.351c0,1.014,0.82,1.834,1.833,1.834h6.476C99.38,79.439,100.271,78.271,99.925,77.101z"/>
	<path fill="#126CA0" d="M92.212,82.571c-0.252-0.486-0.753-0.788-1.299-0.788l0,0c-2.356,0-4.267-1.911-4.267-4.267l0,0
		c0-0.987-0.8-1.788-1.787-1.788h-9.719c-0.987,0-1.787,0.801-1.787,1.788l0,0c0,2.355-1.91,4.267-4.267,4.267l0,0
		c-0.546,0-1.047,0.302-1.299,0.788l-5.022,9.653c-0.363,0.698-0.553,1.473-0.553,2.261v4.384c0,0.625,0.507,1.131,1.131,1.131
		h33.313c0.623,0,1.13-0.506,1.13-1.131v-4.384c0-0.788-0.19-1.563-0.554-2.261L92.212,82.571z M80,94.326
		c-3.568,0-6.462-2.893-6.462-6.462s2.894-6.461,6.462-6.461s6.461,2.892,6.461,6.461S83.568,94.326,80,94.326z"/>
	<circle fill="#126CA0" cx="80" cy="87.864" r="3.595"/>
</g>
<g>
	<path fill="#126CA0" d="M69.925,9.397C68.32,3.966,63.296,0,57.343,0H42.657c-5.952,0-10.979,3.966-12.582,9.397
		c-0.345,1.17,0.545,2.339,1.763,2.339h6.475c1.012,0,1.833-0.82,1.833-1.834V8.552c0-1.788,1.45-3.237,3.238-3.237h13.231
		c1.789,0,3.238,1.449,3.238,3.237v1.351c0,1.014,0.82,1.834,1.833,1.834h6.476C69.38,11.736,70.271,10.567,69.925,9.397z"/>
	<path fill="#126CA0" d="M62.212,14.868c-0.252-0.486-0.753-0.788-1.299-0.788l0,0c-2.356,0-4.267-1.911-4.267-4.267l0,0
		c0-0.987-0.8-1.788-1.787-1.788h-9.719c-0.987,0-1.788,0.801-1.788,1.788l0,0c0,2.355-1.91,4.267-4.266,4.267l0,0
		c-0.546,0-1.047,0.302-1.299,0.788l-5.022,9.653c-0.364,0.698-0.553,1.473-0.553,2.261v4.384c0,0.625,0.506,1.131,1.131,1.131
		h33.313c0.623,0,1.13-0.506,1.13-1.131v-4.384c0-0.788-0.19-1.563-0.554-2.261L62.212,14.868z M50,26.623
		c-3.569,0-6.462-2.893-6.462-6.462S46.431,13.7,50,13.7c3.568,0,6.461,2.892,6.461,6.461S53.568,26.623,50,26.623z"/>
	<circle fill="#126CA0" cx="50" cy="20.161" r="3.595"/>
</g>
<g>
	<polygon fill="#126CA0" points="80,44.75 80,62.125 60.125,62.125 	"/>
	<g>
		
			<rect x="63.831" y="49.618" transform="matrix(0.7071 0.7071 -0.7071 0.7071 58.0758 -33.8459)" fill="#126CA0" width="12.124" height="7.125"/>
		
			<rect x="55.966" y="40.009" transform="matrix(-0.7072 -0.7071 0.7071 -0.7072 72.1087 117.0076)" fill="#126CA0" width="8.637" height="7.125"/>
	</g>
</g>
<g>
	<polygon fill="#126CA0" points="20,44.75 20,62.125 39.875,62.125 	"/>
	<g>
		
			<rect x="24.044" y="49.618" transform="matrix(-0.7071 0.7071 -0.7071 -0.7071 88.9993 69.4966)" fill="#126CA0" width="12.124" height="7.125"/>
		
			<rect x="35.397" y="40.009" transform="matrix(0.7072 -0.7071 0.7071 0.7072 -19.177 40.84)" fill="#126CA0" width="8.637" height="7.125"/>
	</g>
</g>
</svg>
