<?xml version="1.0" encoding="utf-8"?>
<!-- Generator: Adobe Illustrator 16.0.0, SVG Export Plug-In . SVG Version: 6.00 Build 0)  -->
<!DOCTYPE svg PUBLIC "-//W3C//DTD SVG 1.1//EN" "http://www.w3.org/Graphics/SVG/1.1/DTD/svg11.dtd">
<svg version="1.1" id="Layer_1" xmlns="http://www.w3.org/2000/svg" xmlns:xlink="http://www.w3.org/1999/xlink" x="0px" y="0px"
	 width="100px" height="100px" viewBox="0 0 100 100" enable-background="new 0 0 100 100" xml:space="preserve">
<g>
	<g>
		<path fill="#126CA0" d="M88.513,7.094H28.425c0.054,0.458,0.085,0.922,0.085,1.394v59.33c0,6.465-5.259,11.724-11.724,11.724
			S5.062,74.282,5.062,67.817V9.345l-0.249,0.02c-2.793,2.126-4.606,5.557-4.606,9.429v69.509c0,6.46,5.049,11.698,11.281,11.698
			h77.025c6.23,0,11.28-5.238,11.28-11.698V18.793C99.793,12.332,94.743,7.094,88.513,7.094z M36.551,17.591
			c0-0.907,0.734-1.642,1.642-1.642h43.666c0.907,0,1.642,0.735,1.642,1.642v11.423c0,0.907-0.734,1.642-1.642,1.642H38.193
			c-0.907,0-1.642-0.735-1.642-1.642V17.591z M79.826,56.722h-5.682c-2.029,0-3.675-1.645-3.675-3.674v-0.003
			c0-2.029,1.646-3.674,3.675-3.674h5.682c2.029,0,3.674,1.645,3.674,3.674v0.003C83.5,55.077,81.855,56.722,79.826,56.722z
			 M83.5,64.908v0.002c0,2.03-1.645,3.676-3.674,3.676h-5.682c-2.029,0-3.675-1.646-3.675-3.676v-0.002
			c0-2.029,1.646-3.675,3.675-3.675h5.682C81.855,61.233,83.5,62.879,83.5,64.908z M79.826,44.354h-5.682
			c-2.029,0-3.675-1.645-3.675-3.675l0,0c0-2.029,1.646-3.675,3.675-3.675h5.682c2.029,0,3.674,1.646,3.674,3.675l0,0
			C83.5,42.709,81.855,44.354,79.826,44.354z M45.91,80.279h-5.684c-2.029,0-3.674-1.645-3.674-3.675
			c0-2.029,1.645-3.675,3.674-3.675h5.684c2.03,0,3.675,1.646,3.675,3.675C49.584,78.635,47.939,80.279,45.91,80.279z M49.584,64.91
			c0,2.03-1.645,3.676-3.675,3.676h-5.684c-2.029,0-3.674-1.646-3.674-3.676v-0.002c0-2.029,1.645-3.675,3.674-3.675h5.684
			c2.03,0,3.675,1.646,3.675,3.675V64.91z M49.584,53.048c0,2.029-1.645,3.674-3.675,3.674h-5.684c-2.029,0-3.674-1.645-3.674-3.674
			v-0.003c0-2.029,1.645-3.674,3.674-3.674h5.684c2.03,0,3.675,1.645,3.675,3.674V53.048z M49.584,40.679
			c0,2.03-1.645,3.675-3.675,3.675h-5.684c-2.029,0-3.674-1.645-3.674-3.675l0,0c0-2.029,1.645-3.675,3.674-3.675h5.684
			C47.939,37.004,49.584,38.65,49.584,40.679L49.584,40.679z M62.785,80.279h-5.685c-2.03,0-3.676-1.645-3.676-3.675
			c0-2.029,1.646-3.675,3.676-3.675h5.685c2.028,0,3.674,1.646,3.674,3.675C66.459,78.635,64.813,80.279,62.785,80.279z
			 M66.459,64.91c0,2.03-1.646,3.676-3.674,3.676h-5.685c-2.03,0-3.676-1.646-3.676-3.676v-0.002c0-2.029,1.646-3.675,3.676-3.675
			h5.685c2.028,0,3.674,1.646,3.674,3.675V64.91z M66.459,53.048c0,2.029-1.646,3.674-3.674,3.674h-5.685
			c-2.03,0-3.676-1.645-3.676-3.674v-0.003c0-2.029,1.646-3.674,3.676-3.674h5.685c2.028,0,3.674,1.645,3.674,3.674V53.048z
			 M66.459,40.679c0,2.03-1.646,3.675-3.674,3.675h-5.685c-2.03,0-3.676-1.645-3.676-3.675l0,0c0-2.029,1.646-3.675,3.676-3.675
			h5.685C64.813,37.004,66.459,38.65,66.459,40.679L66.459,40.679z M70.47,76.604c0-2.029,1.646-3.675,3.675-3.675h5.682
			c2.029,0,3.674,1.646,3.674,3.675c0,2.03-1.645,3.675-3.674,3.675h-5.682C72.115,80.279,70.47,78.635,70.47,76.604z
			 M80.704,93.314c-2.054,0-3.719-1.662-3.719-3.717c0-2.054,1.665-3.72,3.719-3.72s3.717,1.666,3.717,3.72
			C84.421,91.652,82.758,93.314,80.704,93.314z"/>
	</g>
	<g>
		<path fill="#126CA0" d="M16.786,76.305L16.786,76.305c4.688,0,8.488-3.8,8.488-8.487V8.488C25.274,3.8,21.474,0,16.786,0l0,0
			c-4.688,0-8.488,3.8-8.488,8.488v59.33C8.298,72.505,12.099,76.305,16.786,76.305z"/>
	</g>
</g>
</svg>
