<?xml version="1.0" encoding="utf-8"?>
<!-- Generator: Adobe Illustrator 16.0.0, SVG Export Plug-In . SVG Version: 6.00 Build 0)  -->
<!DOCTYPE svg PUBLIC "-//W3C//DTD SVG 1.1//EN" "http://www.w3.org/Graphics/SVG/1.1/DTD/svg11.dtd">
<svg version="1.1" id="Layer_1" xmlns="http://www.w3.org/2000/svg" xmlns:xlink="http://www.w3.org/1999/xlink" x="0px" y="0px"
	 width="100px" height="100px" viewBox="0 0 100 100" enable-background="new 0 0 100 100" xml:space="preserve">
<g>
	<path fill="#FFD14A" d="M64.648,1.093v42.034h15.687L50,80.188L19.666,43.127h15.686V1.093C14.886,7.355,0,26.391,0,48.907
		c0,27.614,22.386,50,50,50s50-22.386,50-50C100,26.391,85.114,7.355,64.648,1.093z"/>
	<path fill="#FFD14A" d="M51.775,59.027v4.524h-2.722v-4.358c-3.712,0-6.728-0.597-9.049-1.794v-3.629
		c1.012,0.708,2.396,1.302,4.15,1.784c1.747,0.479,3.387,0.717,4.899,0.717V45.595c-3.833-1.474-6.32-2.834-7.454-4.079
		c-1.134-1.244-1.701-2.713-1.701-4.41c0-2.016,0.87-3.758,2.593-5.227c1.724-1.465,3.916-2.345,6.562-2.638v-3.753h2.722v3.672
		c3.416,0.081,5.783,0.47,7.091,1.167v3.544c-1.784-1.112-4.144-1.708-7.091-1.793V43.09c3.628,1.377,6.107,2.71,7.438,3.994
		c1.338,1.286,2.003,2.753,2.003,4.393c0,1.974-0.831,3.632-2.494,4.973C57.052,57.791,54.738,58.65,51.775,59.027z M49.053,41.923
		v-9.719c-1.459,0.235-2.623,0.754-3.478,1.553c-0.854,0.802-1.277,1.77-1.277,2.909c0,1.196,0.348,2.176,1.043,2.941
		C46.037,40.373,47.276,41.146,49.053,41.923z M51.775,46.68v9.427c3.363-0.585,5.05-2.029,5.05-4.338
		C56.825,49.848,55.139,48.154,51.775,46.68z"/>
</g>
</svg>
