<?xml version="1.0" encoding="utf-8"?>
<!-- Generator: Adobe Illustrator 16.0.0, SVG Export Plug-In . SVG Version: 6.00 Build 0)  -->
<!DOCTYPE svg PUBLIC "-//W3C//DTD SVG 1.1//EN" "http://www.w3.org/Graphics/SVG/1.1/DTD/svg11.dtd">
<svg version="1.1" id="Layer_1" xmlns="http://www.w3.org/2000/svg" xmlns:xlink="http://www.w3.org/1999/xlink" x="0px" y="0px"
	 width="66px" height="80px" viewBox="0 0 66 80" enable-background="new 0 0 66 80" xml:space="preserve">
<g>
	<path fill="#C1C1C0" d="M61.285,20.073c0,0-12.833,33.96-39.993,48.534c0,0,17.164-13.531,23.878-30.784
		c0,0-9.35,4.874-21.683,4.773C23.487,42.597,53.707,34.33,61.285,20.073z"/>
	<path fill="#096C9E" d="M65.963,0c0,0-21.152,55.981-65.926,80c0,0,28.285-22.302,39.36-50.744c0,0-15.409,8.034-35.744,7.867
		C3.653,37.124,53.472,23.499,65.963,0z"/>
	<path fill="#C1C1C0" d="M32.183,12.039c0-3.258,2.645-5.9,5.901-5.9c3.265,0,5.905,2.643,5.905,5.9
		c0,3.263-2.641,5.901-5.905,5.901C34.827,17.94,32.183,15.302,32.183,12.039z"/>
</g>
</svg>
